<svg xmlns="http://www.w3.org/2000/svg" width="85.182" height="28.352" viewBox="0 0 85.182 28.352">
  <g id="Layer_2" data-name="Layer 2" transform="translate(2 0)">
    <g id="Layer_1" data-name="Layer 1" transform="translate(0 0)">
      <path id="Path_120" data-name="Path 120" d="M69.588,18.687h3.769v1.532a5.72,5.72,0,0,1,4.53-1.722,4.974,4.974,0,0,1,4.142,2.094,14.612,14.612,0,0,1,1.788-1.319,6.5,6.5,0,0,1,5.639-.322A4.775,4.775,0,0,1,92.4,22.945a10.349,10.349,0,0,1,.124,1.625v7.675H88.551V24.95a5.2,5.2,0,0,0-.322-1.679,2.028,2.028,0,0,0-1.85-1.338,2.869,2.869,0,0,0-3.316,3.1c-.043,2.253,0,4.5,0,6.752v.454H79.05V25.1a4.476,4.476,0,0,0-.388-1.939,2.071,2.071,0,0,0-1.683-1.206A2.814,2.814,0,0,0,73.594,24.6a9.349,9.349,0,0,0-.062,1.094v6.511c-.043.027-.058.05-.074.05H69.58Z" transform="translate(-42.599 -11.299)" fill="#12100b"/>
      <path id="Path_121" data-name="Path 121" d="M144.21,18.716c-.171,0-.206.085-.206.237v1.059c-.442-.3-.842-.632-1.284-.873a6.034,6.034,0,0,0-3.692-.551,6.251,6.251,0,0,0-4.851,3.079,7.628,7.628,0,0,0-.884,5.208,6.48,6.48,0,0,0,1.939,3.828,6.77,6.77,0,0,0,5.243,1.792,5.115,5.115,0,0,0,3.591-1.551c.027-.027.062-.039.136-.1V32.3h3.742V18.728Zm-1.5,9.877a3.413,3.413,0,0,1-5.4-2.117,4.03,4.03,0,0,1,.714-3.49,3.274,3.274,0,0,1,3.51-1.1A3.226,3.226,0,0,1,144,24.557c.062.31.078.628.1.8a3.775,3.775,0,0,1-1.384,3.238Z" transform="translate(-81.524 -11.329)" fill="#12100b"/>
      <path id="Path_122" data-name="Path 122" d="M176.25,32.589l5.189-6.794L176.4,19.07c.147,0,.233-.027.322-.027h3.828a.5.5,0,0,1,.465.237c.88,1.222,1.768,2.439,2.676,3.688.07-.078.132-.143.186-.213.861-1.163,1.73-2.327,2.587-3.49a.5.5,0,0,1,.465-.237h3.936l-5.014,6.659c1.737,2.3,3.49,4.588,5.235,6.926h-4.2a.512.512,0,0,1-.485-.252c-.849-1.206-1.714-2.4-2.571-3.6l-.209-.275c-.555.748-1.094,1.481-1.637,2.21-.423.57-.838,1.163-1.272,1.71a.489.489,0,0,1-.318.2h-4.018a.578.578,0,0,1-.109-.043Z" transform="translate(-107.902 -11.648)" fill="#12100b"/>
      <rect id="Rectangle_116" data-name="Rectangle 116" width="14.892" height="12.092" transform="translate(1.938 5.836)" fill="#12100b"/>
      <path id="Path_123" data-name="Path 123" d="M11.638,0h-.446a11.06,11.06,0,0,0-9.5,5.371A10.94,10.94,0,0,0,.6,14.779a21.888,21.888,0,0,0,3.052,5.681,41.157,41.157,0,0,0,5.266,5.91c.717.671,1.466,1.315,2.21,1.982.109-.078.175-.128.237-.178a44.547,44.547,0,0,0,6.981-7.279A22.264,22.264,0,0,0,21.608,15.1c.066-.182.132-.388.19-.558A11.1,11.1,0,0,0,11.638,0Zm4.557,15.338a.353.353,0,0,1-.023.124.3.3,0,0,1-.283.186H14.566a.3.3,0,0,1-.12-.023.361.361,0,0,1-.1-.07.6.6,0,0,1-.066-.1.322.322,0,0,1-.023-.124V9.7a.089.089,0,0,0,0-.047.085.085,0,0,0,0-.031l-.035-.023h-.074l-1.695,1.753a.388.388,0,0,0-.074.1.3.3,0,0,0-.058.109,1.09,1.09,0,0,0-.039.12.643.643,0,0,0,0,.124v3.49a.337.337,0,0,1-.023.124.3.3,0,0,1-.163.167.291.291,0,0,1-.12.023h-1.4a.388.388,0,0,1-.116-.023.3.3,0,0,1-.1-.07.26.26,0,0,1-.062-.1.3.3,0,0,1-.027-.124V11.8a.682.682,0,0,0,0-.128.7.7,0,0,0-.035-.12.888.888,0,0,0-.054-.1,1.14,1.14,0,0,0-.078-.1L8.419,9.594H8.307a.085.085,0,0,0-.019.031.078.078,0,0,0,0,.043v5.658a.3.3,0,0,1-.027.12.283.283,0,0,1-.066.1.341.341,0,0,1-.1.07.314.314,0,0,1-.12.023H6.6a.314.314,0,0,1-.12-.023.33.33,0,0,1-.1-.066.3.3,0,0,1-.066-.1.3.3,0,0,1-.023-.12V7.081a.489.489,0,0,1,.039-.19.454.454,0,0,1,.1-.163.469.469,0,0,1,.151-.1.388.388,0,0,1,.186-.043H8a.427.427,0,0,1,.1,0l.1.031.089.047.081.07,2.738,2.843a.132.132,0,0,1,.023.023h.186a.132.132,0,0,1,.023-.023l2.746-2.85.081-.07.089-.047.1-.031a.446.446,0,0,1,.1,0H15.71a.45.45,0,0,1,.19.039.423.423,0,0,1,.155.1.628.628,0,0,1,.1.159.524.524,0,0,1,.035.194Z" transform="translate(-2.006 0)" fill="#fd0"/>
    </g>
  </g>
</svg>
