<svg xmlns="http://www.w3.org/2000/svg" width="1440.792" height="231.506" viewBox="0 0 1440.792 231.506">
  <g id="Group_23666" data-name="Group 23666" transform="translate(0 -642.771)">
    <g id="street_illustration_2" data-name="street illustration 2" transform="translate(401.641 642.771)">
      <path id="Path_3" data-name="Path 3" d="M681.319,1470.58H67.2a1.065,1.065,0,1,1,0-2.13H681.319a1.065,1.065,0,1,1,0,2.13" transform="translate(-55.899 -1241.823)"/>
      <path id="Path_4" data-name="Path 4" d="M233.224,546.529a.833.833,0,0,0,.745-.838,7.179,7.179,0,0,1,14.239-1.318.844.844,0,0,0,.451.588.883.883,0,0,0,.724-.015,2.984,2.984,0,0,1,1.333-.323,2.872,2.872,0,0,1,2.514,1.491.857.857,0,0,0,.789.423,3.547,3.547,0,0,1,.394-.022,4.744,4.744,0,0,1,4.744,4.747.807.807,0,0,0,.81.809h4.457a.818.818,0,0,0,.816-.809.834.834,0,0,0-.816-.832h-3.7a6.375,6.375,0,0,0-6.314-5.547h-.014a4.537,4.537,0,0,0-3.668-1.9,4.18,4.18,0,0,0-1.125.154,8.82,8.82,0,0,0-17.228,1.871,6.408,6.408,0,0,0-5.073,5.417h-10.34a.829.829,0,0,0-.818.832.815.815,0,0,0,.818.809H228.05a.813.813,0,0,0,.816-.806,4.767,4.767,0,0,1,4.358-4.73" transform="translate(-182.783 -454.034)"/>
      <path id="Path_5" data-name="Path 5" d="M2451.269,450.872h9.8a1.059,1.059,0,0,0,1.059-1.053,3.858,3.858,0,0,1,3.55-3.838,1.07,1.07,0,0,0,.96-1.08,6.008,6.008,0,0,1,11.913-1.107,1.09,1.09,0,0,0,.573.758,1.059,1.059,0,0,0,.949-.012,2.244,2.244,0,0,1,2.949.889,1.08,1.08,0,0,0,1.014.546c.1,0,.213-.012.309-.012a3.849,3.849,0,0,1,3.849,3.851,1.059,1.059,0,0,0,1.059,1.053h3.936a1.056,1.056,0,0,0,0-2.111h-2.965a5.983,5.983,0,0,0-5.72-4.906,4.413,4.413,0,0,0-4.193-1.6,8.119,8.119,0,0,0-15.742,1.772,6,6,0,0,0-4.46,4.738h-8.839a1.056,1.056,0,1,0,0,2.111" transform="translate(-2060.779 -369.376)"/>
      <path id="Path_6" data-name="Path 6" d="M3294.224,254.609H3308.8a.975.975,0,0,0,.972-.972,6.348,6.348,0,0,1,5.8-6.3.993.993,0,0,0,.9-1.006,9.53,9.53,0,0,1,18.892-1.747,1.034,1.034,0,0,0,.528.695.99.99,0,0,0,.881-.009,3.858,3.858,0,0,1,5.176,1.57.982.982,0,0,0,.926.5c.176-.009.352-.019.528-.019a6.327,6.327,0,0,1,6.327,6.328.974.974,0,0,0,.982.972h5.855a.98.98,0,0,0,0-1.959h-4.938a8.252,8.252,0,0,0-8.3-7.291,5.8,5.8,0,0,0-4.763-2.483,5.945,5.945,0,0,0-1.557.207,11.481,11.481,0,0,0-22.46,2.416,8.342,8.342,0,0,0-6.677,7.15h-13.66a.98.98,0,0,0,0,1.959" transform="translate(-2767.847 -198.614)"/>
      <rect id="Rectangle_73" data-name="Rectangle 73" width="4.054" height="4.054" transform="translate(402.934 166.608)"/>
      <rect id="Rectangle_74" data-name="Rectangle 74" width="4.054" height="4.054" transform="translate(402.934 173.352)"/>
      <rect id="Rectangle_75" data-name="Rectangle 75" width="4.054" height="4.05" transform="translate(402.934 180.106)"/>
      <rect id="Rectangle_76" data-name="Rectangle 76" width="4.054" height="4.05" transform="translate(402.934 186.852)"/>
      <rect id="Rectangle_77" data-name="Rectangle 77" width="4.054" height="4.05" transform="translate(402.934 193.601)"/>
      <rect id="Rectangle_78" data-name="Rectangle 78" width="4.054" height="4.054" transform="translate(402.934 200.35)"/>
      <rect id="Rectangle_79" data-name="Rectangle 79" width="4.054" height="4.054" transform="translate(402.934 207.095)"/>
      <rect id="Rectangle_80" data-name="Rectangle 80" width="4.054" height="4.054" transform="translate(402.934 213.844)"/>
      <rect id="Rectangle_81" data-name="Rectangle 81" width="4.054" height="4.054" transform="translate(411.335 166.608)"/>
      <rect id="Rectangle_82" data-name="Rectangle 82" width="4.054" height="4.054" transform="translate(411.335 173.352)"/>
      <rect id="Rectangle_83" data-name="Rectangle 83" width="4.054" height="4.05" transform="translate(411.335 180.106)"/>
      <rect id="Rectangle_84" data-name="Rectangle 84" width="4.054" height="4.05" transform="translate(411.335 186.852)"/>
      <rect id="Rectangle_85" data-name="Rectangle 85" width="4.054" height="4.05" transform="translate(411.335 193.601)"/>
      <rect id="Rectangle_86" data-name="Rectangle 86" width="4.054" height="4.054" transform="translate(411.335 200.35)"/>
      <rect id="Rectangle_87" data-name="Rectangle 87" width="4.054" height="4.054" transform="translate(411.335 207.095)"/>
      <rect id="Rectangle_88" data-name="Rectangle 88" width="4.054" height="4.054" transform="translate(411.335 213.844)"/>
      <rect id="Rectangle_89" data-name="Rectangle 89" width="4.05" height="4.054" transform="translate(419.737 166.608)"/>
      <rect id="Rectangle_90" data-name="Rectangle 90" width="4.05" height="4.054" transform="translate(419.737 173.352)"/>
      <rect id="Rectangle_91" data-name="Rectangle 91" width="4.05" height="4.05" transform="translate(419.737 180.106)"/>
      <rect id="Rectangle_92" data-name="Rectangle 92" width="4.05" height="4.05" transform="translate(419.737 186.852)"/>
      <rect id="Rectangle_93" data-name="Rectangle 93" width="4.05" height="4.05" transform="translate(419.737 193.601)"/>
      <rect id="Rectangle_94" data-name="Rectangle 94" width="4.05" height="4.054" transform="translate(419.737 200.35)"/>
      <rect id="Rectangle_95" data-name="Rectangle 95" width="4.05" height="4.054" transform="translate(419.737 207.095)"/>
      <rect id="Rectangle_96" data-name="Rectangle 96" width="4.05" height="4.054" transform="translate(419.737 213.844)"/>
      <rect id="Rectangle_97" data-name="Rectangle 97" width="4.054" height="4.054" transform="translate(428.135 166.608)"/>
      <rect id="Rectangle_98" data-name="Rectangle 98" width="4.054" height="4.054" transform="translate(428.135 173.352)"/>
      <rect id="Rectangle_99" data-name="Rectangle 99" width="4.054" height="4.05" transform="translate(428.135 180.106)"/>
      <rect id="Rectangle_100" data-name="Rectangle 100" width="4.054" height="4.05" transform="translate(428.135 186.852)"/>
      <rect id="Rectangle_101" data-name="Rectangle 101" width="4.054" height="4.05" transform="translate(428.135 193.601)"/>
      <rect id="Rectangle_102" data-name="Rectangle 102" width="4.054" height="4.054" transform="translate(428.135 200.35)"/>
      <rect id="Rectangle_103" data-name="Rectangle 103" width="4.054" height="4.054" transform="translate(428.135 207.095)"/>
      <rect id="Rectangle_104" data-name="Rectangle 104" width="4.054" height="4.054" transform="translate(428.135 213.844)"/>
      <path id="Path_7" data-name="Path 7" d="M2921.531,598.106h-15.671a.8.8,0,1,0,0,1.607h15.671a.8.8,0,0,0,0-1.607" transform="translate(-2443.898 -505.799)"/>
      <path id="Path_8" data-name="Path 8" d="M2921.531,628.716h-15.671a.8.8,0,1,0,0,1.607h15.671a.8.8,0,0,0,0-1.607" transform="translate(-2443.898 -531.685)"/>
      <path id="Path_9" data-name="Path 9" d="M2921.532,659.316h-15.671a.8.8,0,1,0,0,1.607h15.671a.8.8,0,0,0,0-1.607" transform="translate(-2443.899 -557.562)"/>
      <path id="Path_10" data-name="Path 10" d="M1410.3,1073.628h1.119v-.006h3.494v-4.63h-3.494v0H1410.3v0h-.016v4.63h.016Z" transform="translate(-1186.549 -904.012)"/>
      <path id="Path_11" data-name="Path 11" d="M1410.3,1023.711h1.119v-.015h3.494v-4.625h-4.629v4.625h.016Z" transform="translate(-1186.549 -861.796)"/>
      <path id="Path_12" data-name="Path 12" d="M1541.245,470.556h-17.9a.918.918,0,1,0,0,1.835h17.9a.918.918,0,0,0,0-1.835" transform="translate(-1280.706 -397.934)"/>
      <path id="Path_13" data-name="Path 13" d="M1540.788,505.472h-17.9a.926.926,0,1,0,0,1.838h17.9a.926.926,0,0,0,0-1.838" transform="translate(-1280.252 -427.456)"/>
      <path id="Path_14" data-name="Path 14" d="M1540.788,540.452h-17.9a.926.926,0,1,0,0,1.838h17.9a.926.926,0,0,0,0-1.838" transform="translate(-1280.252 -457.037)"/>
      <path id="Path_15" data-name="Path 15" d="M1473.1,1123.528h1.821v0h.539V1118.9h-.539v-.011H1473.1v.011h-2.265v4.625h2.265Z" transform="translate(-1237.494 -946.21)"/>
      <path id="Path_16" data-name="Path 16" d="M1473.1,1323.418h1.821v-.011h.539v-4.625h-.539v0H1473.1v0h-2.265v4.625h2.265Z" transform="translate(-1237.494 -1115.251)"/>
      <path id="Path_17" data-name="Path 17" d="M1473.1,1373.318h1.821v0h.539v-4.625h-.539v-.009H1473.1v.009h-2.265v4.625h2.265Z" transform="translate(-1237.494 -1157.45)"/>
      <path id="Path_18" data-name="Path 18" d="M1473.1,1073.628h1.821v-.006h.539v-4.63h-.539v0H1473.1v0h-2.265v4.63h2.265Z" transform="translate(-1237.494 -904.012)"/>
      <path id="Path_19" data-name="Path 19" d="M1473.1,1273.474h1.821v-.014h.539v-4.63h-4.625v4.63h2.265Z" transform="translate(-1237.494 -1073.01)"/>
      <path id="Path_20" data-name="Path 20" d="M1473.1,1023.711h1.821v-.015h.539v-4.625h-4.625v4.625h2.265Z" transform="translate(-1237.494 -861.796)"/>
      <path id="Path_21" data-name="Path 21" d="M1531.323,1073.628h.5v-.006h4.115v-4.63h-4.115v0h-.5v0h-.012v4.63h.012Z" transform="translate(-1288.38 -904.012)"/>
      <path id="Path_22" data-name="Path 22" d="M1531.323,1023.711h.5v-.015h4.115v-4.625h-4.624v4.625h.012Z" transform="translate(-1288.38 -861.796)"/>
      <path id="Path_23" data-name="Path 23" d="M1531.323,1273.474h.5v-.014h4.115v-4.63h-4.624v4.63h.012Z" transform="translate(-1288.38 -1073.01)"/>
      <path id="Path_24" data-name="Path 24" d="M1531.323,1373.318h.5v0h4.115v-4.625h-4.115v-.009h-.5v.009h-.012v4.625h.012Z" transform="translate(-1288.38 -1157.45)"/>
      <path id="Path_25" data-name="Path 25" d="M1531.323,1323.418h.5v-.011h4.115v-4.625h-4.115v0h-.5v0h-.012v4.625h.012Z" transform="translate(-1288.38 -1115.251)"/>
      <path id="Path_26" data-name="Path 26" d="M1531.323,1123.528h.5v0h4.115V1118.9h-4.115v-.011h-.5v.011h-.012v4.625h.012Z" transform="translate(-1288.38 -946.21)"/>
      <rect id="Rectangle_105" data-name="Rectangle 105" width="4.625" height="4.625" transform="translate(214.136 157.274)"/>
      <rect id="Rectangle_106" data-name="Rectangle 106" width="4.625" height="4.628" transform="translate(214.136 164.98)"/>
      <path id="Path_27" data-name="Path 27" d="M1410.5,1123.585h4.406v-4.625h-4.629v4.625h.222Z" transform="translate(-1186.549 -946.27)"/>
      <path id="Path_28" data-name="Path 28" d="M1414.908,1168.91h-4.629v4.625h4.629Z" transform="translate(-1186.549 -988.511)"/>
      <path id="Path_29" data-name="Path 29" d="M1414.9,1223.516h0V1218.9h-4.629v4.616h4.624Z" transform="translate(-1186.549 -1030.786)"/>
      <path id="Path_30" data-name="Path 30" d="M1410.5,1273.46h4.406v-4.63h-4.629v4.63h.222Z" transform="translate(-1186.549 -1073.01)"/>
      <path id="Path_31" data-name="Path 31" d="M1410.5,1323.415h4.406v-4.625h-4.629v4.625h.222Z" transform="translate(-1186.549 -1115.26)"/>
      <path id="Path_32" data-name="Path 32" d="M1410.5,1373.366h4.406v-4.625h-4.629v4.625h.222Z" transform="translate(-1186.549 -1157.501)"/>
      <path id="Path_33" data-name="Path 33" d="M1475.455,1168.817h-.539v-.017H1473.1v.017h-2.265v4.625h4.625Z" transform="translate(-1237.494 -988.418)"/>
      <rect id="Rectangle_107" data-name="Rectangle 107" width="4.625" height="4.618" transform="translate(233.336 188.114)"/>
      <path id="Path_34" data-name="Path 34" d="M1535.934,1168.817h-4.115v-.017h-.5v.017h-.012v4.625h4.624Z" transform="translate(-1288.38 -988.418)"/>
      <rect id="Rectangle_108" data-name="Rectangle 108" width="4.625" height="4.618" transform="translate(242.931 188.114)"/>
      <path id="Path_35" data-name="Path 35" d="M1175.726,1202.958a.915.915,0,0,0-.926.911v36.405a.917.917,0,0,0,1.833,0V1203.86a.915.915,0,0,0-.915-.911" transform="translate(-988.45 -1017.297)"/>
      <path id="Path_36" data-name="Path 36" d="M1212.318,1202.958a.926.926,0,0,0-.926.911v36.405a.926.926,0,1,0,1.838,0V1203.86a.926.926,0,0,0-.926-.911" transform="translate(-1019.231 -1017.297)"/>
      <path id="Path_37" data-name="Path 37" d="M1248.948,1202.958a.926.926,0,0,0-.926.911v36.405a.926.926,0,1,0,1.838,0V1203.86a.926.926,0,0,0-.926-.911" transform="translate(-1050.051 -1017.297)"/>
      <path id="Path_38" data-name="Path 38" d="M1285.671,1202.958a.915.915,0,0,0-.915.911v36.405a.918.918,0,1,0,1.835,0V1203.86a.926.926,0,0,0-.926-.911" transform="translate(-1080.963 -1017.297)"/>
      <path id="Path_39" data-name="Path 39" d="M1322.339,1241.353a.926.926,0,0,0,.926-.926v-36.4a.918.918,0,0,0-1.835,0v36.405a.926.926,0,0,0,.915.926" transform="translate(-1111.821 -1017.461)"/>
      <path id="Path_40" data-name="Path 40" d="M1863.506,1152.436a.926.926,0,0,0-.926.926v45.812a.926.926,0,0,0,1.84,0v-45.818a.926.926,0,0,0-.926-.926" transform="translate(-1567.132 -974.574)"/>
      <path id="Path_41" data-name="Path 41" d="M1904.39,1152.436a.884.884,0,0,0-.837.717c-.018.074-.083.124-.083.2v45.812c0,.079.065.128.083.2a.887.887,0,0,0,.837.719.926.926,0,0,0,.926-.926v-45.805a.926.926,0,0,0-.926-.926" transform="translate(-1601.536 -974.574)"/>
      <path id="Path_42" data-name="Path 42" d="M1945.24,1200.088a.926.926,0,0,0,.926-.926v-45.805a.926.926,0,0,0-.926-.926.887.887,0,0,0-.675.329.9.9,0,0,0-.245.591v45.812a.9.9,0,0,0,.245.59.888.888,0,0,0,.674.33" transform="translate(-1635.906 -974.574)"/>
      <path id="Path_43" data-name="Path 43" d="M2323.012,1092.319a.926.926,0,0,0-.952.912v54.987a.938.938,0,0,0,.952.954.984.984,0,0,0,.664-.29.95.95,0,0,0,.249-.664v-54.987a.855.855,0,0,0-.912-.912" transform="translate(-1953.727 -923.738)"/>
      <path id="Path_44" data-name="Path 44" d="M2364.006,1148.978a.926.926,0,0,0,.912-.954v-54.987a.912.912,0,1,0-1.823,0v54.987a.926.926,0,0,0,.911.954" transform="translate(-1988.254 -923.545)"/>
      <path id="Path_45" data-name="Path 45" d="M2404.8,1148.978a.925.925,0,0,0,.91-.954v-54.987a.912.912,0,1,0-1.823,0v54.987a.926.926,0,0,0,.912.954" transform="translate(-2022.574 -923.545)"/>
      <path id="Path_46" data-name="Path 46" d="M767.464,262.622a.792.792,0,0,0,1.134.556,4.923,4.923,0,0,1,6.584,1.991.815.815,0,0,0,.753.406c.211-.017.431-.029.65-.029a7.812,7.812,0,0,1,7.8,7.8.784.784,0,0,0,.787.786h6.894a.787.787,0,1,0,0-1.573h-6.138a9.391,9.391,0,0,0-9.342-8.592H776.3a6.5,6.5,0,0,0-5.429-2.932,6.367,6.367,0,0,0-2.071.352,13.151,13.151,0,0,0-25.846,2.7,9.436,9.436,0,0,0-7.88,8.476H718.666a.787.787,0,1,0,0,1.573h17.159a.786.786,0,0,0,.787-.786,7.837,7.837,0,0,1,7.167-7.777.819.819,0,0,0,.725-.824,11.575,11.575,0,0,1,22.96-2.128" transform="translate(-603.563 -212.773)"/>
      <path id="Path_47" data-name="Path 47" d="M626.971,1393.461H612.72a.85.85,0,1,0,0,1.7h14.251a.85.85,0,0,0,0-1.7" transform="translate(-517.396 -1178.406)" fill="#fd0"/>
      <path id="Path_48" data-name="Path 48" d="M626.543,1394.757H612.292a.942.942,0,1,1,0-1.881h14.251a.942.942,0,0,1,0,1.881m-14.243-1.7a.761.761,0,1,0,0,1.52h14.243a.761.761,0,0,0,0-1.52Z" transform="translate(-516.968 -1177.911)" fill="#fd0"/>
      <path id="Path_49" data-name="Path 49" d="M632.58,1316.139h14.97a.85.85,0,0,0,0-1.7H632.58a.85.85,0,1,0,0,1.7" transform="translate(-534.19 -1111.581)" fill="#fd0"/>
      <path id="Path_50" data-name="Path 50" d="M647.29,1315.7H632.32a.94.94,0,1,1,0-1.88h14.97a.94.94,0,1,1,0,1.88m-14.97-1.7a.761.761,0,0,0,0,1.522h14.97a.761.761,0,0,0,0-1.522Z" transform="translate(-533.938 -1111.057)" fill="#fd0"/>
      <path id="Path_51" data-name="Path 51" d="M659.194,1354h-8.473a.85.85,0,0,0,0,1.7h8.473a.85.85,0,0,0,0-1.7" transform="translate(-549.619 -1145.036)" fill="#fd0"/>
      <path id="Path_52" data-name="Path 52" d="M658.423,1355.25H649.95a.94.94,0,1,1,0-1.88h8.473a.94.94,0,0,1,0,1.88m-8.465-1.7a.761.761,0,1,0,0,1.521h8.465a.761.761,0,0,0,0-1.522Z" transform="translate(-548.848 -1144.503)" fill="#fd0"/>
      <path id="Path_53" data-name="Path 53" d="M775.081,1303.241l-.028.039a14.224,14.224,0,0,1-1.15-.878c-.123-.13,1.049-.261.986-.451-.758-2.275-1.213-8.065-1.414-8.584a1.977,1.977,0,0,0-1.766-1.1c-.8-.066-5.042-.549-5.328-.656s.262-1.46.167-1.886c-.066-.3.542-.977,1.292-1.437a4.282,4.282,0,0,0,1.306.326,9.159,9.159,0,0,0,1.951.04c.727-.059,1.712-.137,1.792-.133.126.012.3-.463.3-.463s.128.028.321.076l.562-.222h2.161a.7.7,0,0,0-.249-.34,2.381,2.381,0,0,0-.708-.378,14.605,14.605,0,0,0-1.971-.716c-.443-.1-.69.748-1.8.536a5.369,5.369,0,0,1-1.8-.424,11.206,11.206,0,0,1-2.232-2.582,3.015,3.015,0,0,1-.549-1.946,4.888,4.888,0,0,1,.33-.556l-2.281-.792a1.989,1.989,0,0,1-.5.8,6.113,6.113,0,0,0-2.357,3.381c-.617,2.381-3.877,6.292-1.475,9.46a1.879,1.879,0,0,0,.6.5l-.1.054,9.027.58c.414-.049.69-.068.682-.011-.278,1.812.36,6.505.213,6.9s-.7,1.5-.519,1.786a7.825,7.825,0,0,0,2.664.637h3.352s1.037-.407-1.486-1.553m-1.048-15.337h0" transform="translate(-639.167 -1083.057)"/>
      <path id="Path_54" data-name="Path 54" d="M804,1266.349a.136.136,0,0,1-.123.086.142.142,0,0,1-.105-.039l-.426-.394a.139.139,0,1,1,.188-.2l.111.1.318.295a.131.131,0,0,1,.037.154" transform="translate(-675.88 -1070.412)"/>
      <path id="Path_55" data-name="Path 55" d="M791.24,1250.488h0c0-.218-.017-.434-.026-.65a3.171,3.171,0,0,0-2.6-3,2.845,2.845,0,0,0-.576-.046,5.184,5.184,0,0,0-.724.052,2.974,2.974,0,0,0-.915.309,2.887,2.887,0,0,0-1.5,2.776c.023.267.057.531.086.8s.06.514.09.772a3.359,3.359,0,0,0,.133.606.154.154,0,0,0,.123.1l.844.194,4.216.969a.184.184,0,0,0,.211-.074,3.2,3.2,0,0,0,.617-1.352,2.906,2.906,0,0,0,.056-.633c-.009-.276-.022-.552-.034-.83m-.284.634-2.886.088a.041.041,0,0,1-.048-.028l-.477-1.016a.815.815,0,0,1-.086-.309.309.309,0,0,1,.225-.352.75.75,0,0,1,.35-.023l2.869.358h.036l.051,1.27h-.034" transform="translate(-660.368 -1054.376)"/>
      <path id="Path_56" data-name="Path 56" d="M804,1266.349a.136.136,0,0,1-.123.086.142.142,0,0,1-.105-.039l-.426-.394a.139.139,0,1,1,.188-.2l.111.1.318.295a.131.131,0,0,1,.037.154" transform="translate(-675.88 -1070.412)"/>
      <path id="Path_57" data-name="Path 57" d="M804,1266.349a.136.136,0,0,1-.123.086.142.142,0,0,1-.105-.039l-.426-.394a.139.139,0,1,1,.188-.2l.111.1.318.295a.131.131,0,0,1,.037.154" transform="translate(-675.88 -1070.412)"/>
      <path id="Path_58" data-name="Path 58" d="M761.2,1305.825s-2.046-2.647-4.452-2.408a.67.67,0,0,0-.482.843l.6.843.12.6-.361.241-.361-.361-.361-.361v-.722s-.12-.6-.6-.361l-.6.12-.6.12-.12-.722v-1.08l.12-.361a2.4,2.4,0,0,0,.6-1.565c-.12-.722-.482-1.2-.722-1.2s-.722.721-.722,1.323v.241l.086.344a1.144,1.144,0,0,1,.034.279.819.819,0,0,0,.241.58v1.8l.12.481-.361.12v.12H752.3l-.241.12v.482l.36.12h.6v.361l.241.12h1.2v-.12h.241v.241a2.518,2.518,0,0,1-.482,1.443v.482h.361v.241l-.241.361-.12-.12a6.9,6.9,0,0,0-7.348-.844,1.191,1.191,0,0,0-.983.182,3.4,3.4,0,0,0-.8.8,1.147,1.147,0,0,1-.761.463,4.315,4.315,0,0,0-1.066.357,12.63,12.63,0,0,1-4.331-.6,3.485,3.485,0,0,0-1.625-.662c-.962-.12-4.939-.241-4.939-.241l-1.08-.722h-.662a.9.9,0,0,0-.9.9h-1.736v.12l3.971,2.286-.241.12h-3.241v.6h1.445v.241l-.531.318a.307.307,0,0,1-.154.043.3.3,0,0,0-.242.13l-.827,1.194a.154.154,0,0,0,.119.239.2.2,0,0,1,.194.168.182.182,0,0,1-.025.117,10.024,10.024,0,0,1-1.659,2.094.1.1,0,0,0,.1.154,3.54,3.54,0,0,0,1.221-.855l1.444-1.445a12.657,12.657,0,0,1,1.8-1.8l3.241-.12.963.722h1.08l1.2.6h-.037a1.126,1.126,0,0,0-1.026.711c-.034.079-.079.131-.139.131l-.963-.121s-3.193.542-1.205.542a6.091,6.091,0,0,1,6.078,6.1c0,1.554-.077,2.113.421.463h.361l.12.12v.125a.617.617,0,0,0,.177.445.585.585,0,0,0,.732.066l.054-.034.241.1a6.517,6.517,0,0,0,2.5.5h5.8a1.539,1.539,0,0,0,.213-.02,1.907,1.907,0,0,0,1.508-1.324l1.046-3.347v-.843l1.08-1.684.12.12a.341.341,0,0,0,.482,0v-.481l-.241-1.08.48-.241.963-.6v-1.2l.843-.12,1.006,2.014c.154-.085.3-.165.449-.239l-.372-.691.239-1.08h.122l.12-.482h-.12l-.12-.361.241.12.96-.6h.843l1.2.12.481-.361a5.108,5.108,0,0,0-1.323-3.969" transform="translate(-611.314 -1098.904)"/>
      <path id="Path_59" data-name="Path 59" d="M748.306,1387.14a6.972,6.972,0,0,0-5.6,2.822l.9.711a5.832,5.832,0,0,1,8.09-1.306l.665-.926a6.945,6.945,0,0,0-4.051-1.3" transform="translate(-624.853 -1173.061)"/>
      <path id="Path_60" data-name="Path 60" d="M770.04,1420.825a2.105,2.105,0,1,1-2.105-2.1,2.105,2.105,0,0,1,2.105,2.1" transform="translate(-647.638 -1199.768)"/>
      <path id="Path_61" data-name="Path 61" d="M745.846,1392.6a6.136,6.136,0,1,0,6.136,6.136,6.136,6.136,0,0,0-6.136-6.136m0,9.626a3.481,3.481,0,1,1,2.469-1.019,3.489,3.489,0,0,1-2.469,1.019" transform="translate(-622.32 -1177.678)"/>
      <path id="Path_62" data-name="Path 62" d="M770.04,1420.825a2.105,2.105,0,1,1-2.105-2.1,2.105,2.105,0,0,1,2.105,2.1" transform="translate(-647.638 -1199.768)"/>
      <path id="Path_63" data-name="Path 63" d="M768.153,1418.525a2.526,2.526,0,1,1-2.526-2.525,2.527,2.527,0,0,1,2.526,2.525" transform="translate(-645.33 -1197.467)"/>
      <rect id="Rectangle_109" data-name="Rectangle 109" width="1.563" height="10.762" transform="translate(146.087 211.765) rotate(-26.57)"/>
      <rect id="Rectangle_110" data-name="Rectangle 110" width="6.726" height="1.563" transform="translate(123.062 220.718) rotate(-63.43)"/>
      <path id="Path_64" data-name="Path 64" d="M947,1420.825a2.107,2.107,0,1,1-2.107-2.1,2.107,2.107,0,0,1,2.107,2.1" transform="translate(-793.226 -1199.768)"/>
      <path id="Path_65" data-name="Path 65" d="M922.816,1392.6a6.136,6.136,0,1,0,6.136,6.136,6.136,6.136,0,0,0-6.136-6.136m0,9.626a3.48,3.48,0,1,1,2.469-1.018,3.489,3.489,0,0,1-2.469,1.018" transform="translate(-771.206 -1177.678)"/>
      <path id="Path_66" data-name="Path 66" d="M947,1420.825a2.107,2.107,0,1,1-2.107-2.1,2.107,2.107,0,0,1,2.107,2.1" transform="translate(-793.226 -1199.768)"/>
      <path id="Path_67" data-name="Path 67" d="M945.116,1418.525a2.528,2.528,0,1,1-2.528-2.525,2.528,2.528,0,0,1,2.528,2.525" transform="translate(-790.924 -1197.467)"/>
      <path id="Path_68" data-name="Path 68" d="M910.092,1392.15h-1.2a7.342,7.342,0,0,1,11.6-5.977l-.7.98a6.136,6.136,0,0,0-9.7,5" transform="translate(-764.657 -1171.092)"/>
      <path id="Path_69" data-name="Path 69" d="M823.428,1315.713l-.029.037c-.443-.309-1.062-.784-1.15-.878-.122-.128,1.051-.261.988-.451-.758-2.275-1.213-8.065-1.414-8.583a1.974,1.974,0,0,0-1.767-1.1c-.8-.065-5.042-.551-5.326-.656s.261-1.462.167-1.887c-.066-.3.542-.977,1.292-1.437a4.293,4.293,0,0,0,1.3.325,9.271,9.271,0,0,0,1.952.042c.725-.06,1.71-.139,1.79-.134.128.012.3-.463.3-.463s.13.028.323.077l.562-.224h2.161a.7.7,0,0,0-.247-.34,2.384,2.384,0,0,0-.708-.378,14.316,14.316,0,0,0-1.972-.715c-.443-.1-.688.747-1.8.534a5.361,5.361,0,0,1-1.8-.424,11.35,11.35,0,0,1-2.232-2.58,3.027,3.027,0,0,1-.549-1.948,4.842,4.842,0,0,1,.329-.554l-2.281-.793a1.965,1.965,0,0,1-.5.8,6.113,6.113,0,0,0-2.358,3.381c-.617,2.381-3.875,6.292-1.474,9.461a1.864,1.864,0,0,0,.6.5l-.1.054,9.027.58c.415-.049.691-.066.684-.009-.278,1.81.36,6.5.212,6.9s-.7,1.5-.517,1.784a7.852,7.852,0,0,0,2.664.639h3.363s1.039-.409-1.485-1.552m-1.048-15.338h0" transform="translate(-679.841 -1093.602)"/>
      <path id="Path_70" data-name="Path 70" d="M852.343,1278.852a.134.134,0,0,1-.122.088.143.143,0,0,1-.1-.04c-.142-.131-.285-.261-.426-.394a.136.136,0,0,1-.012-.2.14.14,0,0,1,.2,0l.11.1.319.3a.13.13,0,0,1,.036.154" transform="translate(-716.558 -1080.99)"/>
      <path id="Path_71" data-name="Path 71" d="M839.495,1262.959h0c-.009-.216-.017-.434-.028-.65a3.164,3.164,0,0,0-2.61-2.994,2.875,2.875,0,0,0-.574-.048,5.19,5.19,0,0,0-.725.053,2.99,2.99,0,0,0-.914.309,2.875,2.875,0,0,0-1.417,1.823,2.813,2.813,0,0,0-.079.955c.023.266.057.531.086.795s.059.514.09.772a3.427,3.427,0,0,0,.131.607.155.155,0,0,0,.125.1l.843.193q2.111.483,4.218.971a.183.183,0,0,0,.21-.076,3.2,3.2,0,0,0,.617-1.352,2.8,2.8,0,0,0,.056-.631c0-.278-.022-.554-.034-.832m-.284.634-2.885.09a.045.045,0,0,1-.048-.028c-.154-.34-.319-.677-.478-1.017a.871.871,0,0,1-.086-.309.316.316,0,0,1,.227-.352.77.77,0,0,1,.35-.023l2.867.36h.037c.015.423.032.844.051,1.27h-.036" transform="translate(-700.956 -1064.923)"/>
      <path id="Path_72" data-name="Path 72" d="M852.343,1278.852a.134.134,0,0,1-.122.088.143.143,0,0,1-.1-.04c-.142-.131-.285-.261-.426-.394a.136.136,0,0,1-.012-.2.14.14,0,0,1,.2,0l.11.1.319.3a.13.13,0,0,1,.036.154" transform="translate(-716.558 -1080.99)"/>
      <path id="Path_73" data-name="Path 73" d="M852.343,1278.852a.134.134,0,0,1-.122.088.143.143,0,0,1-.1-.04c-.142-.131-.285-.261-.426-.394a.136.136,0,0,1-.012-.2.14.14,0,0,1,.2,0l.11.1.319.3a.13.13,0,0,1,.036.154" transform="translate(-716.558 -1080.99)"/>
      <path id="Path_74" data-name="Path 74" d="M3531.114,1300.6h2.04a1.081,1.081,0,0,1,1.195,1.165q.016.811,0,1.622a.993.993,0,0,1-1.062,1.08q-2.16.028-4.312,0a1.047,1.047,0,0,1-1.093-1.125c-.009-.54-.014-1.08,0-1.622a1.113,1.113,0,0,1,1.148-1.128h2.087m-.028,2.952h1.945c.267,0,.4-.086.4-.372-.011-.432,0-.864,0-1.3,0-.252-.1-.364-.36-.363h-3.888c-.285,0-.381.134-.375.4.011.417.014.833,0,1.25,0,.278.105.387.383.383.633-.011,1.266,0,1.9,0" transform="translate(-2966.235 -1099.874)"/>
      <path id="Path_75" data-name="Path 75" d="M3530.653,1304.165c-.708,0-1.429,0-2.16-.012a1.123,1.123,0,0,1-1.177-1.21c-.009-.479-.017-1.047,0-1.625a1.191,1.191,0,0,1,1.235-1.211h4.128a1.163,1.163,0,0,1,1.28,1.249c.011.518.011,1.066,0,1.625a1.09,1.09,0,0,1-1.145,1.171c-.7.009-1.426.014-2.16.014m-1.3-3.891h-.8a1.029,1.029,0,0,0-1.063,1.045c-.014.577,0,1.142,0,1.619a.973.973,0,0,0,1.009,1.043c1.474.015,2.922.017,4.309,0a.917.917,0,0,0,.979-1c.01-.557.012-1.1,0-1.619a1,1,0,0,0-1.111-1.08h-3.324m-.656,2.957a.4.4,0,0,1-.451-.472c.01-.37.008-.772,0-1.246a.48.48,0,0,1,.111-.37.452.452,0,0,1,.346-.116h3.89a.444.444,0,0,1,.333.109.451.451,0,0,1,.108.34c-.008.48-.009.884,0,1.292a.448.448,0,0,1-.108.347.473.473,0,0,1-.355.113h-3.875m0-2.034a.31.31,0,0,0-.224.065.347.347,0,0,0-.063.247c.013.483.014.881,0,1.255a.309.309,0,0,0,.057.235.3.3,0,0,0,.238.062h3.861a.322.322,0,0,0,.234-.065.292.292,0,0,0,.059-.221c-.011-.411-.008-.817,0-1.3a.3.3,0,0,0-.059-.216.3.3,0,0,0-.213-.06h-3.891Z" transform="translate(-2965.754 -1099.459)"/>
      <path id="Path_76" data-name="Path 76" d="M3569.378,1404.106a6.976,6.976,0,0,1-6.968-6.968c0-.241.013-.477.036-.71a7.252,7.252,0,0,1,.154-.9l.994.236a5.9,5.9,0,0,0-.128.772q-.031.3-.031.607a5.946,5.946,0,1,0,9.927-4.417l-.169-.154.657-.784c.066.056.131.113.2.171a6.968,6.968,0,0,1-4.664,12.144" transform="translate(-2995.441 -1176.994)"/>
      <path id="Path_77" data-name="Path 77" d="M3568.913,1403.531a7.061,7.061,0,0,1-7.053-7.053c0-.236.013-.477.036-.718a7.344,7.344,0,0,1,.155-.909l.02-.082,1.16.275-.02.083a5.978,5.978,0,0,0-.126.751c-.02.2-.031.4-.031.6a5.865,5.865,0,1,0,9.784-4.354l-.231-.2.772-.914.065.056c.066.057.133.114.2.173a7.053,7.053,0,0,1-4.721,12.292m-6.729-8.557a7.711,7.711,0,0,0-.13.8c-.023.235-.036.463-.036.7a6.883,6.883,0,1,0,11.49-5.113l-.128-.114-.55.654.106.091a6.031,6.031,0,1,1-10.067,4.475c0-.2.011-.409.031-.617a6.369,6.369,0,0,1,.111-.691Z" transform="translate(-2994.976 -1176.334)"/>
      <path id="Path_78" data-name="Path 78" d="M3587.823,1410.3a3.6,3.6,0,1,1,3.6-3.6,3.6,3.6,0,0,1-3.6,3.6m0-6.183a2.581,2.581,0,1,0,2.581,2.581,2.581,2.581,0,0,0-2.581-2.581" transform="translate(-3013.886 -1186.558)"/>
      <path id="Path_79" data-name="Path 79" d="M3587.357,1409.924a3.687,3.687,0,1,1,3.687-3.687,3.687,3.687,0,0,1-3.687,3.687m0-7.2a3.517,3.517,0,1,0,3.517,3.517,3.517,3.517,0,0,0-3.517-3.517m0,6.183a2.665,2.665,0,1,1,2.665-2.666,2.666,2.666,0,0,1-2.665,2.666m0-5.161a2.5,2.5,0,1,0,2.5,2.5,2.5,2.5,0,0,0-2.5-2.5" transform="translate(-3013.42 -1186.093)"/>
      <path id="Path_80" data-name="Path 80" d="M3191.818,1431.336a6.976,6.976,0,0,1-6.968-6.968c0-.127,0-.253.009-.378l1.021.05q-.009.165-.009.329a5.946,5.946,0,1,0,11.893,0c0-.1,0-.208-.009-.309l1.022-.052c0,.12.009.242.009.364a6.976,6.976,0,0,1-6.968,6.968" transform="translate(-2679.387 -1204.224)"/>
      <path id="Path_81" data-name="Path 81" d="M3191.361,1430.931a7.059,7.059,0,0,1-7.052-7.053c0-.128,0-.255.008-.383v-.085l1.191.059v.085c0,.108-.009.216-.009.324a5.865,5.865,0,1,0,11.729,0c0-.1,0-.205-.009-.309v-.085l1.191-.063v.086c0,.123.009.245.009.369a7.06,7.06,0,0,1-7.053,7.053m-6.877-7.342v.289a6.883,6.883,0,0,0,13.766,0v-.275l-.851.043v.232a6.031,6.031,0,0,1-12.062,0v-.247Z" transform="translate(-2678.928 -1203.733)"/>
      <path id="Path_82" data-name="Path 82" d="M3210.262,1410.3a3.6,3.6,0,1,1,3.6-3.6,3.6,3.6,0,0,1-3.6,3.6m0-6.183a2.581,2.581,0,1,0,2.58,2.581,2.58,2.58,0,0,0-2.58-2.581" transform="translate(-2697.889 -1186.558)"/>
      <path id="Path_83" data-name="Path 83" d="M3209.8,1409.924a3.687,3.687,0,1,1,3.687-3.687,3.687,3.687,0,0,1-3.687,3.687m0-7.2a3.517,3.517,0,1,0,3.517,3.517,3.517,3.517,0,0,0-3.517-3.517m0,6.183a2.665,2.665,0,1,1,2.665-2.666,2.665,2.665,0,0,1-2.665,2.666m0-5.161a2.5,2.5,0,1,0,2.5,2.5,2.5,2.5,0,0,0-2.5-2.5" transform="translate(-2697.424 -1186.093)"/>
      <path id="Path_84" data-name="Path 84" d="M3236.228,1174.091a6.645,6.645,0,0,0-.609-1.341,7.128,7.128,0,0,0-3.1-2.759c.116-.2.221-.356.295-.523.517-1.17.679-2.6-.512-3.55a11.494,11.494,0,0,0-1.3-.926,1.081,1.081,0,0,0-.668-.059,10.061,10.061,0,0,0-1.18.292,11.932,11.932,0,0,0-1.567.508,10.339,10.339,0,0,0-1.225.772.47.47,0,0,1-.02-.125,30.031,30.031,0,0,0,.772-7.716,3.513,3.513,0,0,0-.483-1.759q-.732-1.207-1.458-2.417c-2.292-3.838-4.592-7.672-6.868-11.521a20.684,20.684,0,0,0-3.5-4.863,12.055,12.055,0,0,0-8.319-3.415c-10.545-.043-21.091-.011-31.638-.026a12.546,12.546,0,0,0-4.4.724,11.793,11.793,0,0,0-7.439,7.417,44.992,44.992,0,0,0-1.312,5.615q-.772,3.642-1.448,7.3a17.636,17.636,0,0,0-.423,3.11c-.036,6.463-.011,12.927-.017,19.39a2.625,2.625,0,0,0,1.04,2.119.729.729,0,0,1,.251.352,8.618,8.618,0,0,1,.192,1.045.928.928,0,0,0,.784.9,1.088,1.088,0,0,0,1.3-.532c.116-.2.366-.67.366-.67a21.491,21.491,0,0,1,1.059-2.179,26.486,26.486,0,0,1,2.22-2,1.7,1.7,0,0,1,1.235-.262h0l5.184.052h.1a1.7,1.7,0,0,1,1.363.636,19.3,19.3,0,0,0,1.455,1.481,1.34,1.34,0,0,1,.359.587c.045.154.8,1.738.8,1.738.131.231.214.4.308.549a1.172,1.172,0,0,0,1.213.67,1.109,1.109,0,0,0,.926-1.08c.019-.5.278-.586.742-.585q18.972.02,37.946,0a9.105,9.105,0,0,0,1.156-.154c.807.636,1.163.566,2.088-.532l1.235-2.025a6.349,6.349,0,0,1,1.829-2.276,4.614,4.614,0,0,1,2.985-1.1c1.617-.019,4.857.2,4.857.2l1.593.215s.454.052.628.083c.951.168,1.519-.441,1.224-1.364m-4.716-7.5a1.81,1.81,0,0,1,0,2.951Zm-1.71-.437v3.922a4.265,4.265,0,0,1-3.55-2.022,4.444,4.444,0,0,1,3.55-1.875m-5.874-11.812c-1.255,0-2.432.066-3.6-.02a2.361,2.361,0,0,1-2.051-1.529c-.456-1.108-.821-2.253-1.21-3.4-.727-2.111-1.428-4.23-2.161-6.328a1.345,1.345,0,0,1,1.159-1.971l7.871,13.242m-62.791,1.59q.707-3.513,1.423-7.022c.318-1.569.549-3.162.961-4.707a11.185,11.185,0,0,1,7.03-7.857,11.465,11.465,0,0,1,4.3-.75c10.392.016,20.787,0,31.175.012a11.564,11.564,0,0,1,9.21,4.377c.067.079.122.168.205.284-.139.065-.245.116-.353.164a2,2,0,0,0-1.2,2.457c.426,1.415.927,2.812,1.389,4.213.617,1.838,1.235,3.675,1.869,5.51a3.69,3.69,0,0,0,2.678,2.576,3.883,3.883,0,0,0,.869.091c1.13.017,2.258.033,3.4.017a.687.687,0,0,1,.692.407c.308.548.646,1.08,1.011,1.673-.228.015-.361.031-.492.032q-4.894,0-9.789.011c-.42,0-.531-.145-.617-.531-.271-1.235-.617-2.445-.9-3.675-.617-2.735-1.214-5.476-1.827-8.212a2.782,2.782,0,0,0-2.832-2.252h-28.627a1.965,1.965,0,0,0-2.071,1.309,3.165,3.165,0,0,0-.145,1.045c-.011,3.9,0,7.793,0,11.69v.582h-17.594c.082-.491.155-.971.244-1.443m35.149-3.96c0-.193.071-.539.155-.551a1.132,1.132,0,0,1,.739.111,1.779,1.779,0,0,1,.771,1.5c.029.539,0,1.081,0,1.621-.046,0-.1,6.149-.085,9.221,0,.383-.128.569-.5.475-.119-.031-.329-.187-.342-.309-.17-1.378-.258-2.767-.477-4.136a55.707,55.707,0,0,1-.261-7.944m1.435,13.319h8.4a1.429,1.429,0,0,1,1.466,1.886c-.094.373-.185.749-.256,1.126a.548.548,0,0,1-.606.5h-5.15a.5.5,0,0,1-.372-.193,1.872,1.872,0,0,0-1.88-.926c-.63.023-1.261,0-1.926,0-.079-.8-.155-1.543-.23-2.355.205-.014.381-.035.557-.035m3.7,4.475h3.536c-.643,2.832-1.282,5.652-1.926,8.488a1.468,1.468,0,0,1-1.58-1.508c-.035-1.619-.023-3.241-.029-4.86v-2.122m2.918,6.965c.5-2.24,1-4.476,1.526-6.715a.529.529,0,0,1,.37-.278c.33-.062.677-.029,1.006-.1a1.273,1.273,0,0,0,.99-1.1c.1-.451.185-.908.293-1.357a2.288,2.288,0,0,0-2.2-2.827c-2.315-.021-4.639,0-6.96,0h-.582c-.011-.154-.029-.27-.028-.386.046-3.386.1-6.771.131-10.157a5.66,5.66,0,0,0-.2-1.733c-.355-1.133-.917-1.489-2.381-1.7-.011-.127-.029-.261-.029-.4v-5.846c0-.353.083-.483.463-.483,4.192.014,8.381,0,12.573.011a1.877,1.877,0,0,1,1.938,1.526c.437,1.908.832,3.823,1.261,5.732.229,1.022.48,2.039.741,3.051.154.569.154.573-.4.727-1.292.357-2.58.727-3.874,1.08a.856.856,0,0,0-.749.866,4.992,4.992,0,0,0,.175,1.4c.225.708.714.889,1.429.66,1.276-.407,2.557-.8,3.836-1.2a3.4,3.4,0,0,1,.4-.079,2.716,2.716,0,0,1,.1.5c0,1.235.019,2.469-.017,3.7-.091,3.042-.174,6.084-.327,9.123-.093,1.88-.286,3.756-.479,5.628a2.872,2.872,0,0,1-.44,1.326,1.434,1.434,0,0,1-1,.548c-2.582.043-5.165.022-7.747.019a.707.707,0,0,1-.155-.046l.336-1.5m9.172-21.255c.474,1.185.4.942-.562,1.261-1.108.369-2.235.685-3.346,1.046-.272.088-.366,0-.435-.232-.207-.671-.09-.852.594-1.02.626-.154,1.242-.349,1.862-.525s1.235-.349,1.886-.531m-18.211-11.819V1158.1a.383.383,0,0,1-.1.057c-1.268.179-1.267.179-1.268-1.1q0-6.426-.019-12.851c0-.437.133-.579.549-.534a8.273,8.273,0,0,0,.838,0m-8.026,25.943a1.68,1.68,0,0,0,.772-.727,5.68,5.68,0,0,0,.35-2.932,2.358,2.358,0,0,0-2.094-1.6,18.168,18.168,0,0,0-2.227,0,.842.842,0,0,1-.44-.087c-1.081-.741-2.136-1.519-3.226-2.244a2,2,0,0,1-.985-2.108,17.512,17.512,0,0,0-.018-2.223V1145.13c0-1.08.395-1.469,1.491-1.468,3.858,0,7.717.015,11.575,0,.437,0,.579.1.576.56-.021,2.613,0,7.84.024,7.84,0,2.428-.023,4.855,0,7.283.064,5.7.155,11.4.228,17.106a1.811,1.811,0,0,1-.58,1.543,1.2,1.2,0,0,1-.647.276c-.725.034-1.454.016-2.18.012a1.869,1.869,0,0,1-1.868-1.315c-.324-.926-.626-1.87-.926-2.812a2.43,2.43,0,0,1-.108-.682c-.014-1.128,0-2.258-.021-3.386a.482.482,0,0,1,.309-.48m-1.821-.841c-.049,0-.12-.1-.142-.165-.351-1.08-.693-2.161-1.062-3.315.757,0,1.421-.031,2.08,0a1.424,1.424,0,0,1,1.245,1.653,13.287,13.287,0,0,1-.35,1.481c-.034.117-.154.287-.256.295-.5.042-1.01.043-1.516.043m-6.443,12.722a3.029,3.029,0,0,1-.174.417,5.53,5.53,0,0,1-.477-.889,9.141,9.141,0,0,0-3.522-4.581,2.268,2.268,0,0,0-1.313-.309c-1.684-.049-3.37-.011-5.052-.074a4.153,4.153,0,0,0-2.889,1.011,8.4,8.4,0,0,0-2.648,3.656,6.968,6.968,0,0,1-.34.758,1.094,1.094,0,0,1-.237.242,1.233,1.233,0,0,1-.2-.309,7.1,7.1,0,0,1-.013-3.7,7.606,7.606,0,0,1,6.289-5.914,9.554,9.554,0,0,1,6.585.742,7.481,7.481,0,0,1,3.946,4.784,9.236,9.236,0,0,1,.048,4.181m40.322-1.752a.772.772,0,0,1-.759.4q-18.983-.011-37.95,0c-.155,0-.309-.014-.463-.022-.043-.747-.056-1.469-.133-2.184a7.518,7.518,0,0,0-2.275-4.543,8.277,8.277,0,0,0-4.283-2.443c-4.105-.815-7.823-.232-10.661,3.181a7.6,7.6,0,0,0-1.715,4.167c-.017.17-.028.34-.048.508a1.151,1.151,0,0,1-.051.173l-.133.023a4.4,4.4,0,0,1-.145-.787c-.012-2.227,0-4.454,0-6.681q0-6.311-.012-12.618c0-.446.083-.607.579-.605,5.556.02,11.112.014,16.655.014h.556a15.565,15.565,0,0,1-.009,1.654,2.687,2.687,0,0,0,1.3,2.756c.9.591,1.781,1.224,2.682,1.82a2.294,2.294,0,0,1,.971,1.25q1.054,3.275,2.12,6.548c.556,1.712,1.1,3.428,1.676,5.135a2.7,2.7,0,0,0,2.543,1.733c.741-.028,1.485,0,2.227,0a2.2,2.2,0,0,0,2.116-1.775,6.53,6.53,0,0,0,.1-1.15q-.046-6.7-.114-13.405c-.012-1.142-.069-2.284-.1-3.426a1.976,1.976,0,0,1,.031-.284,11.536,11.536,0,0,1,1.212-.051.463.463,0,0,1,.333.308c.214,1.932.4,3.868.6,5.8.1.951.231,1.9.349,2.846.048.4.29.543.671.54h2.227c.742,0,1.056.309,1.059,1.037,0,1-.034,2.006-.032,3.014,0,1.313.02,2.624.043,3.942a2.473,2.473,0,0,0,1.645,2.488,2.636,2.636,0,0,0,.861.113c2.8,0,5.6-.051,8.4.025a2.6,2.6,0,0,0,2.852-2.594c.249-3.559.566-7.113.735-10.675.111-2.327.016-4.664,0-7,0-.647-.02-.647.617-.647h9.877c.663,0,.645,0,.666.685a26.514,26.514,0,0,1-1.011,8.143,44.445,44.445,0,0,1-4.218,9.982c-.5.883-1.062,1.734-1.582,2.608m14.353-5.4c-1.768-.125-3.537-.309-5.306-.327a6.485,6.485,0,0,0-5.8,3.273c-.586.926-1.144,1.864-1.718,2.795a2.8,2.8,0,0,1-.226.286.55.55,0,0,1-.077-.806,46.649,46.649,0,0,0,4.229-8.406c.088-.225.181-.435.408-.5l.687-.173a2.509,2.509,0,0,1,2.135.154,6.508,6.508,0,0,0,1.732.42,1.8,1.8,0,0,1,.463.194.681.681,0,0,0,.95-.154.737.737,0,0,1,1.068-.188,6.2,6.2,0,0,1,3.008,3.241c.04.108.061.224.1.394-.591-.074-1.12-.165-1.653-.2" transform="translate(-2654.97 -959.546)"/>
      <path id="Path_85" data-name="Path 85" d="M3178.4,1182.388a1.341,1.341,0,0,1-1.08-.735c-.065-.1-.123-.207-.193-.333l-.122-.219c-.08-.167-.759-1.6-.8-1.756a1.244,1.244,0,0,0-.338-.548c-.137-.136-.278-.27-.417-.4a12.173,12.173,0,0,1-1.043-1.08,1.6,1.6,0,0,0-1.3-.607h-.1l-5.15-.052h-.041a1.615,1.615,0,0,0-1.177.244,26.227,26.227,0,0,0-2.213,1.992,18.2,18.2,0,0,0-1.042,2.161s-.253.474-.369.678a1.176,1.176,0,0,1-1.389.574,1,1,0,0,1-.853-.971,8.408,8.408,0,0,0-.188-1.036.659.659,0,0,0-.224-.309,2.71,2.71,0,0,1-1.071-2.184v-6.346c0-4.275,0-8.7.018-13.046a15.128,15.128,0,0,1,.357-2.778l.066-.35c.488-2.585.96-4.973,1.449-7.3.1-.463.185-.926.276-1.389a30.727,30.727,0,0,1,1.039-4.244,11.857,11.857,0,0,1,7.491-7.468,12.584,12.584,0,0,1,4.4-.73h.028q6.139.009,12.28,0c6.348,0,12.905,0,19.356.023a12.117,12.117,0,0,1,8.377,3.437,19.293,19.293,0,0,1,3.308,4.531l.207.352c1.668,2.821,3.378,5.684,5.033,8.451l1.835,3.071c.482.806.971,1.611,1.458,2.415a3.575,3.575,0,0,1,.494,1.8,30.311,30.311,0,0,1-.758,7.692l.254-.176a5.278,5.278,0,0,1,.861-.528,8.472,8.472,0,0,1,1.221-.4l.369-.1a10.809,10.809,0,0,1,1.19-.295,1.175,1.175,0,0,1,.726.071,11.976,11.976,0,0,1,1.313.926c1.388,1.1.926,2.76.535,3.649a3.062,3.062,0,0,1-.19.349c-.021.034-.041.069-.063.1a7.194,7.194,0,0,1,3.053,2.75,6.714,6.714,0,0,1,.617,1.361,1.154,1.154,0,0,1-.154,1.162,1.219,1.219,0,0,1-1.167.308c-.169-.031-.617-.083-.617-.083l-1.6-.214c-.026,0-3.255-.205-4.843-.2a4.521,4.521,0,0,0-2.932,1.08,6.138,6.138,0,0,0-1.807,2.246l-1.234,2.034c-.937,1.113-1.349,1.235-2.185.579-.133.02-.258.042-.378.062a4.382,4.382,0,0,1-.755.089c-14.792.009-26.853.008-37.945,0-.451,0-.642.071-.658.5a1.18,1.18,0,0,1-.986,1.151.881.881,0,0,1-.219.028m-5.217-5.851a1.746,1.746,0,0,1,1.344.663,11.978,11.978,0,0,0,1.029,1.068c.141.136.281.27.418.406a1.405,1.405,0,0,1,.383.617c.031.108.49,1.092.791,1.727.043.074.083.154.12.214.068.122.125.225.187.326a1.085,1.085,0,0,0,1.119.631,1.013,1.013,0,0,0,.86-.992c.023-.617.4-.668.827-.668,11.093.014,23.149.016,37.945,0a4.246,4.246,0,0,0,.725-.086c.133-.025.27-.048.42-.068h.036l.028.022c.736.577,1.044.579,1.97-.522l1.222-2.006a6.225,6.225,0,0,1,1.852-2.3,4.684,4.684,0,0,1,3.041-1.124h.213c1.657,0,4.618.2,4.649.2l1.6.214c.017,0,.463.054.631.085a1.06,1.06,0,0,0,1.009-.256,1,1,0,0,0,.117-1,6.636,6.636,0,0,0-.6-1.326,7.072,7.072,0,0,0-3.063-2.724l-.08-.042.045-.077c.038-.066.074-.128.109-.187a3.017,3.017,0,0,0,.18-.33,2.772,2.772,0,0,0-.486-3.446,11.817,11.817,0,0,0-1.293-.914.97.97,0,0,0-.617-.049,10.5,10.5,0,0,0-1.154.285l-.388.108a8.4,8.4,0,0,0-1.194.392,5.237,5.237,0,0,0-.835.512c-.125.088-.25.176-.379.259l-.11.071-.02-.128a.239.239,0,0,0-.012-.057.206.206,0,0,1,0-.1,30.149,30.149,0,0,0,.772-7.692,3.413,3.413,0,0,0-.471-1.719c-.487-.8-.977-1.608-1.458-2.417l-1.835-3.071c-1.655-2.767-3.365-5.629-5.033-8.451l-.208-.352a19.092,19.092,0,0,0-3.276-4.492,11.984,11.984,0,0,0-8.261-3.4c-6.453-.026-13.013-.025-19.356-.022H3174.37a12.423,12.423,0,0,0-4.344.719,11.7,11.7,0,0,0-7.388,7.365,30.772,30.772,0,0,0-1.032,4.221q-.134.695-.276,1.389c-.488,2.326-.961,4.712-1.448,7.3l-.066.352a15.429,15.429,0,0,0-.355,2.743c-.025,4.347-.02,8.769-.017,13.044v6.346a2.548,2.548,0,0,0,1.011,2.053.85.85,0,0,1,.28.4,8.713,8.713,0,0,1,.193,1.054.839.839,0,0,0,.716.826.991.991,0,0,0,1.213-.491c.116-.2.365-.667.365-.667a18.484,18.484,0,0,1,1.08-2.2,26.7,26.7,0,0,1,2.227-2.006,1.751,1.751,0,0,1,1.279-.279h.011Zm5.247,5.136-.085-.154c-.066-.124-.135-.231-.195-.333a2.338,2.338,0,0,1-.287-.571,9.058,9.058,0,0,0-3.494-4.539,2.333,2.333,0,0,0-1.264-.3c-.771-.023-1.571-.026-2.338-.031-.89,0-1.81-.009-2.715-.045a4.067,4.067,0,0,0-2.834,1,8.235,8.235,0,0,0-2.623,3.618,6.973,6.973,0,0,1-.344.772.684.684,0,0,1-.178.2c-.026.022-.052.045-.075.068l-.074.073-.056-.086c-.022-.031-.046-.062-.071-.093a.71.71,0,0,1-.142-.241,7.181,7.181,0,0,1-.014-3.755,7.664,7.664,0,0,1,6.354-5.976,9.564,9.564,0,0,1,6.636.75,7.547,7.547,0,0,1,3.988,4.84,9.326,9.326,0,0,1,.049,4.218.949.949,0,0,1-.086.228c-.024.054-.057.12-.094.205Zm-10.561-6.141h.181c.9.035,1.821.04,2.71.043.771,0,1.56.009,2.341.033a2.457,2.457,0,0,1,1.364.333,9.368,9.368,0,0,1,3.55,4.63,2.371,2.371,0,0,0,.27.531l.116.192c.009-.02.018-.039.025-.056a.843.843,0,0,0,.076-.188,9.178,9.178,0,0,0-.048-4.142,7.394,7.394,0,0,0-3.9-4.734,9.475,9.475,0,0,0-6.529-.733,7.5,7.5,0,0,0-6.222,5.851,7.008,7.008,0,0,0,.012,3.667.587.587,0,0,0,.112.182.171.171,0,0,1,.019.025l.013-.011a.583.583,0,0,0,.136-.145,6.564,6.564,0,0,0,.335-.75,8.433,8.433,0,0,1,2.675-3.691,4.229,4.229,0,0,1,2.766-1.034m52.347,4.53-.068-.066a.63.63,0,0,1-.088-.912,46.881,46.881,0,0,0,4.221-8.391.8.8,0,0,1,.463-.554l.692-.174a2.612,2.612,0,0,1,2.2.154,3.179,3.179,0,0,0,1.108.309c.2.029.406.06.6.108a1.921,1.921,0,0,1,.481.2.6.6,0,0,0,.842-.131.828.828,0,0,1,1.175-.208,6.268,6.268,0,0,1,3.048,3.292,1.764,1.764,0,0,1,.066.241l.04.154.032.122-.125-.016c-.191-.023-.377-.049-.559-.076-.376-.052-.732-.1-1.089-.126-.452-.032-.9-.068-1.357-.1-1.293-.1-2.624-.205-3.945-.224h-.106a6.376,6.376,0,0,0-5.622,3.233c-.375.591-.746,1.2-1.1,1.789-.2.335-.407.671-.617,1.006a1.411,1.411,0,0,1-.155.2l-.077.094Zm6.223-10.1a3.354,3.354,0,0,0-.96.164l-.691.173c-.18.056-.261.23-.347.452a46.95,46.95,0,0,1-4.238,8.42.458.458,0,0,0,0,.633l.017-.022a1.456,1.456,0,0,0,.139-.179c.207-.335.41-.671.617-1.006.358-.591.729-1.2,1.105-1.792a6.553,6.553,0,0,1,5.764-3.312h.11c1.321.017,2.661.123,3.957.224.451.036.9.071,1.355.1.363.025.722.076,1.1.128l.434.059a.191.191,0,0,0-.01-.042,1.638,1.638,0,0,0-.062-.221,6.1,6.1,0,0,0-2.97-3.2.654.654,0,0,0-.961.167.762.762,0,0,1-1.057.171,1.756,1.756,0,0,0-.446-.177c-.188-.045-.39-.076-.587-.106a3.274,3.274,0,0,1-1.168-.323,2.153,2.153,0,0,0-1.109-.309m-8.291,9.835q-15.181-.009-30.36,0h-7.59a2.623,2.623,0,0,1-.309-.012h-.23v-.076c-.014-.236-.025-.463-.035-.7-.022-.511-.045-.992-.1-1.479a7.459,7.459,0,0,0-2.25-4.492,8.227,8.227,0,0,0-4.24-2.42c-4.594-.913-8.054.119-10.58,3.151a7.517,7.517,0,0,0-1.7,4.127c0,.062-.013.123-.018.184-.009.11-.018.218-.031.326a.643.643,0,0,1-.037.134.271.271,0,0,1-.017.052l-.016.051-.052.009-.13.023-.083.015-.017-.083c-.016-.082-.036-.165-.056-.245a2.475,2.475,0,0,1-.091-.559c-.009-1.65-.008-3.3-.008-4.949V1168.6c0-3.309,0-6.73-.012-10.095a.746.746,0,0,1,.141-.545c.119-.12.256-.144.515-.144h0c4.363.014,8.8.016,13.087.012h4.208v.085c0,.184,0,.364.009.542a7.685,7.685,0,0,1-.018,1.122,2.614,2.614,0,0,0,1.264,2.676c.474.308.946.636,1.4.951.418.289.849.585,1.28.869a2.383,2.383,0,0,1,1,1.295q.863,2.678,1.734,5.354l.387,1.193.463,1.426c.394,1.218.8,2.469,1.215,3.7a2.59,2.59,0,0,0,2.46,1.677c.488-.018.982-.015,1.458-.01h.772a2.112,2.112,0,0,0,2.033-1.7,6.445,6.445,0,0,0,.1-1.136c-.032-4.809-.069-9.193-.112-13.4,0-.747-.036-1.506-.062-2.241-.016-.395-.029-.788-.04-1.183a1.071,1.071,0,0,1,.018-.207c0-.028.011-.058.014-.091l.009-.069h.071c.114,0,.228-.016.341-.023a6.717,6.717,0,0,1,.878-.028.541.541,0,0,1,.414.383c.128,1.151.247,2.324.361,3.459.079.781.154,1.563.24,2.343.07.645.154,1.3.233,1.934l.116.911c.039.326.21.463.57.463h.017c.617-.008,1.224,0,1.835,0h.392c.771,0,1.142.358,1.143,1.122,0,.519,0,1.045-.015,1.556-.009.485-.017.973-.015,1.459,0,1.172.014,2.423.042,3.939a2.379,2.379,0,0,0,1.589,2.411,2.524,2.524,0,0,0,.833.108h2.762c1.852-.009,3.757-.019,5.635.032h.106a2.48,2.48,0,0,0,2.657-2.517c.079-1.117.164-2.235.249-3.354.184-2.4.372-4.877.488-7.318.079-1.659.052-3.351.027-4.987-.011-.67-.022-1.338-.025-2.006v-.049c0-.319,0-.48.1-.582s.269-.1.6-.1h9.877c.687,0,.728.04.75.713v.054a26.67,26.67,0,0,1-1.014,8.169,44.779,44.779,0,0,1-4.226,10c-.3.519-.617,1.036-.926,1.536-.221.357-.441.713-.656,1.08h0a.864.864,0,0,1-.832.443m-38.339-.195h.086c.1,0,.2.012.309.012h37.95a.691.691,0,0,0,.685-.363c.216-.36.437-.718.659-1.08.309-.5.628-1.016.926-1.531a44.567,44.567,0,0,0,4.21-9.964,26.561,26.561,0,0,0,1.008-8.118v-.054c-.017-.548-.017-.548-.58-.548H3215.2c-.267,0-.429,0-.48.051s-.049.205-.047.463v.048c0,.668.016,1.336.026,2.006.025,1.639.051,3.334-.028,5-.115,2.445-.308,4.925-.487,7.325q-.127,1.676-.248,3.351a2.671,2.671,0,0,1-2.831,2.676H3211c-1.873-.05-3.784-.04-5.628-.031-.926,0-1.844.009-2.766,0a2.692,2.692,0,0,1-.89-.117,2.553,2.553,0,0,1-1.7-2.568c-.028-1.517-.042-2.778-.042-3.942,0-.488.007-.975.015-1.463s.017-1.032.016-1.543c0-.665-.293-.951-.974-.952h-2.242a.653.653,0,0,1-.741-.617c-.037-.309-.076-.607-.114-.909-.082-.634-.166-1.29-.234-1.937-.082-.781-.155-1.562-.241-2.343-.115-1.136-.233-2.315-.361-3.459a.4.4,0,0,0-.252-.231,7.024,7.024,0,0,0-.858.028c-.091,0-.182.014-.275.018a.262.262,0,0,0,0,.028.953.953,0,0,0-.018.174q.017.591.04,1.182c.026.735.054,1.5.062,2.244.045,4.212.082,8.6.113,13.405a6.473,6.473,0,0,1-.1,1.165,2.286,2.286,0,0,1-2.2,1.852h-.771c-.476,0-.966-.009-1.451.011h-.095a2.787,2.787,0,0,1-2.532-1.793c-.417-1.235-.824-2.494-1.216-3.7l-.463-1.425-.387-1.194q-.868-2.676-1.732-5.355a2.229,2.229,0,0,0-.937-1.2c-.432-.284-.864-.582-1.281-.87-.463-.309-.926-.641-1.4-.949a2.776,2.776,0,0,1-1.34-2.837,8.049,8.049,0,0,0,.02-1.1c0-.154-.009-.309-.011-.463h-4.039c-4.291,0-8.726,0-13.087-.012h0a.557.557,0,0,0-.394.094c-.067.068-.092.187-.092.423.014,3.366.012,6.791.012,10.1v4.255q0,2.469.008,4.948a2.362,2.362,0,0,0,.086.518c.014.057.03.116.042.173h0v-.009a.481.481,0,0,0,.028-.1c.013-.106.022-.213.031-.319,0-.062.011-.125.017-.187a7.7,7.7,0,0,1,1.715-4.26c2.57-3.087,6.086-4.138,10.745-3.21a8.33,8.33,0,0,1,4.321,2.469,7.634,7.634,0,0,1,2.3,4.594c.054.492.076.977.1,1.489.01.207.019.414.03.617m10.84-1.655h-1.192a1.965,1.965,0,0,1-1.947-1.37c-.335-.962-.642-1.922-.926-2.815a2.488,2.488,0,0,1-.111-.707c-.008-.543-.01-1.08-.011-1.631q0-.877-.011-1.756a.565.565,0,0,1,.353-.554c.42-.245.658-.463.727-.679a5.417,5.417,0,0,0,.349-2.875,2.268,2.268,0,0,0-2.023-1.536,9.07,9.07,0,0,0-1.42-.022c-.262.009-.539.022-.8.017a.908.908,0,0,1-.486-.1q-.669-.463-1.331-.926c-.617-.437-1.256-.887-1.9-1.313a2.073,2.073,0,0,1-1.023-2.19,7.949,7.949,0,0,0,.01-1.432c-.014-.256-.028-.52-.028-.772V1144.7c0-1.134.434-1.543,1.574-1.552h11.581a.705.705,0,0,1,.51.14.662.662,0,0,1,.139.5c-.019,2.4,0,7.1.02,7.755h0v2.344c0,1.647-.01,3.349.009,5.022.046,4.134.1,8.334.164,12.4l.065,4.7a1.92,1.92,0,0,1-.617,1.613,1.3,1.3,0,0,1-.7.295c-.328.017-.662.02-.992.02m-3.757-8.7c-.205.12-.273.2-.27.406.007.587.011,1.172.013,1.758,0,.543,0,1.08.009,1.63a2.316,2.316,0,0,0,.1.656c.281.894.589,1.852.927,2.81a1.779,1.779,0,0,0,1.785,1.258h.552c.533,0,1.08.009,1.624-.017a1.117,1.117,0,0,0,.6-.256,1.708,1.708,0,0,0,.55-1.479l-.056-4.695c-.057-4.067-.116-8.269-.154-12.4-.019-1.675-.014-3.377-.011-5.024v-2.259h.014c-.063-.727-.038-7.768-.038-7.842a.539.539,0,0,0-.09-.383.552.552,0,0,0-.39-.091h-.011c-2.724.009-5.5,0-8.187,0h-3.381c-1.042,0-1.389.35-1.4,1.389v12.569c0,.255.016.517.028.771a7.964,7.964,0,0,1-.011,1.462,1.92,1.92,0,0,0,.948,2.029c.642.426,1.281.877,1.9,1.315q.662.463,1.331.926a.83.83,0,0,0,.391.071c.262,0,.531,0,.79-.019a9.273,9.273,0,0,1,1.448.023,2.42,2.42,0,0,1,2.161,1.661,5.482,5.482,0,0,1-.353,2.974,1.713,1.713,0,0,1-.8.772m20.835,8.689h-4.024a.28.28,0,0,1-.1-.023l-.075-.028-.074-.023.651-2.9c.4-1.767.808-3.594,1.234-5.388.039-.167.286-.309.438-.344a3.691,3.691,0,0,1,.5-.046,3.252,3.252,0,0,0,.5-.048,1.191,1.191,0,0,0,.926-1.034c.046-.2.088-.4.13-.607.052-.251.1-.5.165-.75a2.2,2.2,0,0,0-2.115-2.723c-1.626-.014-3.281-.011-4.88,0h-2.741v-.079a.5.5,0,0,0-.012-.139,2.247,2.247,0,0,1-.016-.253q.019-1.468.042-2.932c.034-2.368.069-4.815.089-7.224a5.708,5.708,0,0,0-.2-1.7c-.337-1.08-.834-1.429-2.315-1.639l-.068-.009V1150c0-.039-.008-.077-.011-.116-.009-.094-.019-.191-.019-.287v-5.846a.6.6,0,0,1,.12-.443.569.569,0,0,1,.425-.125h0c4.192.012,8.382,0,12.573.011a1.959,1.959,0,0,1,2.021,1.593c.244,1.063.479,2.148.706,3.2q.273,1.269.555,2.537c.207.926.443,1.888.741,3.047v.026c.154.589.122.642-.463.8l-1.438.4c-.812.229-1.624.463-2.437.675-.463.125-.692.381-.686.781a4.955,4.955,0,0,0,.172,1.377.932.932,0,0,0,.484.63,1.173,1.173,0,0,0,.837-.025c1.088-.347,2.2-.691,3.269-1.023l.569-.177a2.239,2.239,0,0,1,.256-.055l.146-.025.083-.017.017.083c.011.055.025.109.039.162a1.446,1.446,0,0,1,.058.358v.812c0,.948,0,1.926-.02,2.891l-.025.818c-.08,2.724-.163,5.539-.308,8.306-.093,1.888-.289,3.79-.479,5.633a3.017,3.017,0,0,1-.454,1.366,1.514,1.514,0,0,1-1.07.583c-1.234.022-2.485.028-3.724.028m-4.071-.2h.009l.039.014h1.73c1.972,0,4.013.011,6.019-.023a1.365,1.365,0,0,0,.926-.513,2.831,2.831,0,0,0,.424-1.284c.189-1.84.385-3.742.478-5.625.137-2.764.222-5.579.3-8.3l.026-.82c.028-.96.023-1.937.02-2.884v-.812a1.445,1.445,0,0,0-.056-.309l-.023-.088-.068.011a1.759,1.759,0,0,0-.236.051l-.57.176c-1.071.332-2.179.676-3.267,1.025a1.344,1.344,0,0,1-.957.017,1.12,1.12,0,0,1-.579-.733,5,5,0,0,1-.176-1.426.936.936,0,0,1,.809-.949c.813-.219,1.625-.446,2.435-.673l1.44-.4c.463-.13.463-.13.344-.6l-.008-.026c-.3-1.161-.535-2.13-.742-3.053-.19-.844-.372-1.7-.556-2.537-.227-1.048-.463-2.131-.706-3.193a1.8,1.8,0,0,0-1.852-1.462q-6.285,0-12.573-.011h0a.433.433,0,0,0-.309.076.465.465,0,0,0-.072.321c.01,1.315.009,2.655.009,3.948v1.9a2.628,2.628,0,0,0,.018.27v.051c1.492.221,2.031.618,2.385,1.746a5.861,5.861,0,0,1,.205,1.759c-.019,2.409-.054,4.857-.088,7.226q-.023,1.466-.043,2.932a2.1,2.1,0,0,0,.015.235v.065h7.464a2.376,2.376,0,0,1,2.279,2.932c-.058.247-.111.5-.154.744-.043.2-.085.407-.131.617a1.343,1.343,0,0,1-1.057,1.162,3.41,3.41,0,0,1-.526.051,3.525,3.525,0,0,0-.482.045.461.461,0,0,0-.308.214c-.42,1.793-.831,3.619-1.235,5.386Zm-1.162.17a1.557,1.557,0,0,1-1.073-.406,1.655,1.655,0,0,1-.5-1.188c-.026-1.175-.026-2.369-.026-3.525v-3.542h3.727l-.025.1-1.938,8.552h-.159m-1.435-8.488v3.372c0,1.154,0,2.349.026,3.522a1.486,1.486,0,0,0,.449,1.066,1.389,1.389,0,0,0,.958.36h.02l1.888-8.322Zm28.127.289a4.421,4.421,0,0,1-3.452-2.08l-.023-.049.034-.042a4.671,4.671,0,0,1,3.4-1.912,2.025,2.025,0,0,1,.219.008h.078v4.053h-.077a1.543,1.543,0,0,1-.175.009m-3.284-2.111a4.239,4.239,0,0,0,3.265,1.931h.091v-3.738h-.13a4.467,4.467,0,0,0-3.227,1.812M3231,1169.3v-3.267l.124.066a1.543,1.543,0,0,1,.8,1.276,2.087,2.087,0,0,1-.782,1.818Zm.169-2.975v2.614a1.922,1.922,0,0,0,.581-1.543,1.415,1.415,0,0,0-.581-1.066m-26.994,2.147c-1,0-2.023,0-3.031-.009a.583.583,0,0,1-.446-.235,1.716,1.716,0,0,0-1.67-.884h-.132c-.44.017-.871.014-1.326.009h-.682l-.244-2.522h.088c.065,0,.128-.009.188-.014.13-.011.251-.02.374-.02h8.4a1.512,1.512,0,0,1,1.543,1.992c-.091.357-.183.741-.255,1.12a.637.637,0,0,1-.69.574h-2.121Zm-5.15-1.3a1.892,1.892,0,0,1,1.821.969.422.422,0,0,0,.3.154h5.147a.463.463,0,0,0,.522-.437c.073-.384.167-.772.258-1.13a1.344,1.344,0,0,0-1.389-1.781h-8.4c-.115,0-.234.011-.359.02h-.1l.213,2.195h1.981m-13.838,1.269h-.141c-.116,0-.2-.154-.224-.222-.278-.858-.552-1.719-.838-2.624l-.26-.81h.8c.486,0,.943-.012,1.4.014a1.367,1.367,0,0,1,.991.528,1.559,1.559,0,0,1,.332,1.224,12.776,12.776,0,0,1-.349,1.478c-.043.154-.191.357-.333.369-.454.037-.9.043-1.389.043m-.129-.171c.524,0,1.012,0,1.5-.042.042,0,.154-.128.18-.234a13.066,13.066,0,0,0,.348-1.469,1.4,1.4,0,0,0-.3-1.091,1.2,1.2,0,0,0-.869-.463c-.451-.026-.908-.02-1.389-.014h-.574l.189.588c.285.9.56,1.758.838,2.624a.262.262,0,0,0,.073.1m12.056-4.225a.791.791,0,0,1-.195-.028c-.128-.032-.387-.2-.407-.374-.065-.528-.119-1.067-.171-1.587-.084-.838-.17-1.7-.309-2.545a32.8,32.8,0,0,1-.262-5.667c0-.75.015-1.526,0-2.289,0-.079.032-.6.222-.637a1.222,1.222,0,0,1,.8.123,1.848,1.848,0,0,1,.813,1.571c.022.377.016.76.011,1.128v.5l-.011.085c-.04.667-.085,6.061-.074,9.137a.6.6,0,0,1-.17.508.383.383,0,0,1-.245.077m-1.17-12.491c.014.771,0,1.543,0,2.293a33.7,33.7,0,0,0,.261,5.639c.136.846.224,1.713.309,2.553.052.522.106,1.059.171,1.585.008.065.176.2.279.228a.347.347,0,0,0,.295-.018c.069-.056.1-.181.1-.374,0-.086,0-8.425.1-9.221h-.01v-.5c0-.366.009-.745-.011-1.116a1.69,1.69,0,0,0-.735-1.435,1.069,1.069,0,0,0-.664-.1,1.161,1.161,0,0,0-.1.463m-1.9,6.354a.569.569,0,0,1-.387-.106c-.187-.164-.187-.5-.187-1.159v-2.858c0-3.275,0-6.661-.018-9.995a.66.66,0,0,1,.154-.519.6.6,0,0,1,.489-.1,4.021,4.021,0,0,0,.534.009h.38v14.558l-.042.025-.04.025a.216.216,0,0,1-.093.042,6.507,6.507,0,0,1-.789.083m-.093-14.575a.338.338,0,0,0-.233.063.529.529,0,0,0-.1.394c.016,3.332.017,6.72.019,9.995v2.857c0,.594,0,.926.13,1.031s.452.066,1.042-.017l.018-.014h.008v-14.289h-.206a4.394,4.394,0,0,1-.555-.009h-.125m15.1,14.172a.322.322,0,0,1-.146-.034.465.465,0,0,1-.2-.292.989.989,0,0,1-.032-.759,1.022,1.022,0,0,1,.69-.367c.426-.106.855-.233,1.27-.355.2-.057.392-.116.588-.169l1.96-.553.057.154c.227.565.309.772.235.935-.065.128-.218.171-.463.242-.113.031-.247.068-.407.12-.594.2-1.2.384-1.792.563-.511.154-1.038.309-1.554.483a.611.611,0,0,1-.2.038m4.031-2.324-1.812.511c-.2.054-.39.113-.586.17-.417.122-.849.25-1.278.355-.346.087-.516.168-.582.287s-.054.3.046.627c.034.108.069.167.113.19a.3.3,0,0,0,.216-.014c.517-.17,1.045-.33,1.557-.484.588-.181,1.2-.364,1.789-.562.162-.054.3-.093.414-.123.2-.057.333-.093.364-.154.045-.09-.057-.341-.239-.8Zm2.019,1.908c-.472,0-.6-.2-.69-.6-.143-.64-.308-1.287-.463-1.912-.154-.577-.309-1.173-.437-1.762-.359-1.582-.714-3.193-1.06-4.752q-.38-1.729-.771-3.46a2.705,2.705,0,0,0-2.749-2.185h-28.636a1.876,1.876,0,0,0-1.991,1.253,3.061,3.061,0,0,0-.14,1.017q-.012,4.675-.008,9.351v3.005h-17.776l.017-.1c.026-.154.051-.309.075-.463.052-.335.1-.653.168-.974q.431-2.144.869-4.287.276-1.366.554-2.733c.1-.5.194-1.012.289-1.519.193-1.054.394-2.144.674-3.195a11.284,11.284,0,0,1,7.081-7.914,11.494,11.494,0,0,1,4.308-.756h.026q8.254.011,16.513,0h14.673a11.673,11.673,0,0,1,9.275,4.406c.047.056.086.113.133.181l.077.11.06.082-.205.1c-.088.042-.165.079-.244.113a1.928,1.928,0,0,0-1.148,2.355c.323,1.07.688,2.147,1.043,3.188l.348,1.02c.6,1.767,1.234,3.648,1.87,5.51a3.609,3.609,0,0,0,2.624,2.52,3.791,3.791,0,0,0,.849.09c1.043.015,2.225.032,3.384.017h.021a.771.771,0,0,1,.747.451c.214.384.446.758.693,1.154l.316.515.073.121-.139.009-.205.015c-.117.009-.206.017-.292.017h-2.523c-2.387,0-4.857,0-7.285.011Zm-8.7-14.842h2.53a2.86,2.86,0,0,1,2.915,2.315q.388,1.73.772,3.462c.344,1.557.7,3.169,1.061,4.749.132.588.285,1.184.433,1.758.155.627.329,1.275.463,1.918.079.352.162.463.523.463h.009c2.429-.014,4.9-.012,7.286-.012h2.5a1.709,1.709,0,0,0,.28-.017h.066q-.123-.2-.244-.394c-.245-.4-.478-.771-.694-1.162a.6.6,0,0,0-.6-.364h-.02c-1.157.016-2.344,0-3.395-.017a3.9,3.9,0,0,1-.887-.094,3.782,3.782,0,0,1-2.738-2.624c-.641-1.861-1.275-3.741-1.871-5.51-.114-.341-.229-.679-.345-1.02-.355-1.043-.724-2.121-1.046-3.195a2.1,2.1,0,0,1,1.244-2.56c.077-.032.155-.068.239-.109l.02-.009a.23.23,0,0,0-.02-.029c-.043-.062-.08-.117-.122-.167a11.533,11.533,0,0,0-9.146-4.346h-31.212a11.308,11.308,0,0,0-4.244.744,11.114,11.114,0,0,0-6.979,7.8c-.279,1.045-.48,2.131-.673,3.182-.093.508-.187,1.016-.289,1.52q-.275,1.369-.556,2.735-.435,2.144-.867,4.287c-.063.318-.114.633-.167.966-.02.124-.039.249-.059.375h17.4v-2.878q0-4.676.008-9.351a3.118,3.118,0,0,1,.154-1.08,2.05,2.05,0,0,1,2.15-1.366h26.1m14.92,11.789c-.473,0-.936-.011-1.4-.045a2.442,2.442,0,0,1-2.123-1.582c-.357-.867-.662-1.772-.958-2.645-.085-.25-.168-.5-.255-.749q-.407-1.19-.81-2.381c-.44-1.3-.9-2.638-1.356-3.951a1.59,1.59,0,0,1,.021-1.349,1.684,1.684,0,0,1,1.2-.733l.058-.012.031.053,7.946,13.37h-.155c-.383,0-.759,0-1.131.012s-.721.012-1.08.012m-5.71-13.255a1.479,1.479,0,0,0-1.028.637,1.455,1.455,0,0,0-.009,1.208c.463,1.313.917,2.656,1.357,3.953q.4,1.193.812,2.383l.254.749c.295.872.6,1.772.954,2.634a2.279,2.279,0,0,0,1.979,1.477c.8.059,1.608.045,2.46.032.323,0,.651-.011.983-.012Z" transform="translate(-2654.535 -959.117)"/>
      <path id="Path_86" data-name="Path 86" d="M2838.271,885.034h1.614V779.5h3.686v105.53h1.614V777.89h-6.914Z" transform="translate(-2387.955 -657.837)"/>
      <path id="Path_87" data-name="Path 87" d="M1784.12,470.315h1.864V346.9l5.093,2.69,8.24,4.389,12.464,6.542.91.5,5.135,2.692v.208h-3.475v12.007H1812.7v-3.272a.918.918,0,1,0-1.835,0v3.272h-3.6V417.5h-4.646V368.3a.917.917,0,0,0-1.833,0v49.2h-7.871V363.72a.917.917,0,0,0-1.834,0V417.5h-.376v52.82h1.863v-51h21.781v51h1.863V417.5h-3.561V389.381h5.258v80.934h1.823V387.558h-8.9V417.5h-1.739V377.746h59.667v29.771h-1.74V387.558h-8.9v82.757h1.823V389.381h5.258v18.135h-3.561v62.8h1.821V409.333h21.823v60.976h1.821V407.516h-16.524V375.923h-7.123V363.916h-4.719v-11.84h-4.723v-11.8h-4.721v-11.8h-4.719V316.629h-4.737v-28.1a.926.926,0,1,0-1.838,0v28.1h-4.73v11.842h-4.719v11.8h-4.721v11.8h-4.719V362.3l-5.342-2.82-1.08-.539V307.7a.918.918,0,1,0-1.835,0v24.867l-7.408-3.929-12.366-6.5v25.383l-6.957-3.644Zm60.442-140.022h2.911v11.8h4.719v11.842h4.721v9.981h-12.346Zm-9.47-11.843h7.655v4.11l-7.66-.086Zm0,5.865,7.659.083v4.2l-7.659-.091Zm.017,34.416v-4.213l7.627.083v4.207Zm7.627,1.918v3.273h-7.627v-3.358Zm-7.627-7.96v-4.213l7.627.083v4.21Zm0-6.042v-4.213l7.627.083v4.21Zm0-6.042v-4.213l7.627.083v4.212Zm0-6.042v-4.213l7.627.083v4.212Zm-14.178,19.379h4.721V342.094h4.719v-11.8h2.9v33.623h-12.347Zm-1.821,11.8h42.524v9.979H1816.21v-9.985h2.9Zm-26.17-40.584,10.518,5.548,7.408,3.929V357.95l-17.967-9.437Z" transform="translate(-1499.618 -243.118)"/>
      <path id="Path_88" data-name="Path 88" d="M2905.34,885.034h1.574V779.5h3.727v105.53h1.614V777.89h-6.916Z" transform="translate(-2444.383 -657.837)"/>
      <path id="Path_89" data-name="Path 89" d="M1127.152,459.384h1.821V415.091H1158v44.293h1.821V448.051h3.06v-4.63h-3.06v-3.087h3.06V435.7h-3.06v-3.087h3.06v-4.63h-3.06V424.9h3.06v-4.6h-3.06v-3.087h3.06V415.1h.792v-6.459h-.792v-3.755h-4.63v3.758h-5.888v-24.56h44.383v75.3h0v-75.3h.042v75.3h1.823V383.916h3.858v-7.993h-3.889V338.357h4.253V459.384h1.829V336.529h-7.913v39.395h-3.928V336.546h-7.909v39.378h-3.892V336.546h-7.908v39.378h-4.389V331.167h52.13V459.389h1.823V331.162h3.517a.912.912,0,1,0,0-1.821h-3.52v-8.53h-13.456v-23.15h-7.743v-23.1H1188.1v23.1h-7.7v23.15h-13.5v8.53h-3.519a.911.911,0,0,0,0,1.821h3.519v44.756H1146.65v7.991h3.892v24.721H1123.3v6.459h3.858Zm62.772-183h9.723v21.284h-9.723Zm-7.7,23.15h25.142v21.281h-25.142Zm-13.5,23.1h52.13v6.709h-52.13Zm18.057,15.742h4.224v37.546h-4.223Zm-11.843,0h4.266v37.546h-4.266Zm-26.42,43.716v-4.348h52.132v4.348Zm-23.4,31.138v-2.778h36.731v2.778Z" transform="translate(-944.165 -232.187)"/>
      <path id="Path_90" data-name="Path 90" d="M2778.687,340.186h3.105V452.01h1.574V340.186H2829V452.01h1.616V340.186h3.063a.809.809,0,1,0,0-1.616h-3.063v-7.453h-11.8V310.869h-6.749V297.123h2.857a.787.787,0,0,0,.787-.787.762.762,0,0,0-.787-.787h-2.857v-4.926h-5.053V266.647a.807.807,0,1,0-1.614,0v23.975H2800.3v4.926h-2.857a.786.786,0,0,0-.787.787.815.815,0,0,0,.787.787h2.857v13.746H2793.6v20.248h-11.8v7.453h-3.109a.808.808,0,0,0,0,1.616m23.229-47.949h8.53v3.312h-8.53Zm0,4.886h8.53v13.746h-8.53Zm-6.749,15.362h22.028v18.632h-22.028Zm-11.8,20.248H2829v5.837h-45.633Z" transform="translate(-2336.101 -224.813)"/>
      <path id="Path_91" data-name="Path 91" d="M2477.585,1075.166h1.614v-65.282h38.881v65.282h1.574v-65.407h3.4v-7.039h-48.86v7.039h3.4Zm-1.781-70.838h45.631v3.81H2475.8Z" transform="translate(-2080.851 -847.969)"/>
      <path id="Path_92" data-name="Path 92" d="M3039.22,885.034h1.616V779.5h3.727v105.53h1.614V777.89h-6.957Z" transform="translate(-2557.021 -657.837)"/>
      <path id="Path_93" data-name="Path 93" d="M2972.42,885.034h1.573V779.5h3.727v105.53h1.614V777.89h-6.914Z" transform="translate(-2500.82 -657.837)"/>
      <path id="Path_94" data-name="Path 94" d="M2059.13,1018.667h1.863V937.733h5.26v80.934h1.821V935.91h-8.944Z" transform="translate(-1732.401 -791.47)"/>
      <path id="Path_95" data-name="Path 95" d="M1675.73,799.038h1.863V678.021h4.224V799.038h1.863V676.2h-7.949Z" transform="translate(-1409.849 -571.841)"/>
      <path id="Path_96" data-name="Path 96" d="M2161.35,1018.667h1.823V937.733h5.258v80.934h1.822V935.91h-8.9Z" transform="translate(-1818.403 -791.47)"/>
      <path id="Path_97" data-name="Path 97" d="M2877.22,561.58v.128h.148v-.128h.04v.307h-.04v-.144h-.148v.144h-.04v-.307Z" transform="translate(-2420.825 -474.911)" fill="#fff"/>
      <path id="Path_98" data-name="Path 98" d="M2879.141,561.6a.026.026,0,0,1-.008.018.025.025,0,0,1-.019.007.025.025,0,0,1,0-.049.025.025,0,0,1,.019.007.026.026,0,0,1,.008.018m-.046.062h.04v.221h-.04Z" transform="translate(-2422.436 -474.911)" fill="#fff"/>
      <path id="Path_99" data-name="Path 99" d="M142,1199.328h-7.613c-2.571,0-5.144-.01-7.717,0-.617,0-.912.271-.912.876v9.183c0,.6.273.876.852.886H142.1a.768.768,0,0,0,.861-.886q.012-4.564,0-9.132c0-.673-.273-.926-.954-.926" transform="translate(-106.351 -1014.23)"/>
      <rect id="Rectangle_111" data-name="Rectangle 111" width="14.021" height="7.76" transform="translate(21.001 186.681)" fill="#fddb00"/>
      <rect id="Rectangle_112" data-name="Rectangle 112" width="1.508" height="1.499" transform="translate(25.696 191.374)"/>
      <rect id="Rectangle_113" data-name="Rectangle 113" width="1.499" height="1.508" transform="translate(28.831 191.383)"/>
      <rect id="Rectangle_114" data-name="Rectangle 114" width="1.491" height="1.517" transform="translate(31.965 191.383)"/>
      <path id="Path_100" data-name="Path 100" d="M136.365,1173.587a.755.755,0,0,0-.792-.8c-.256-.009-.5,0-.772,0,0-1.08.009-2.062,0-3.059a.76.76,0,0,0-.784-.852c-.475,0-.772.324-.772.869v3h-1.574v-2.963c-.009-.58-.3-.912-.793-.9s-.758.324-.772.869c-.009.213,0,.426,0,.639v2.4h-.5c-.843,0-1.065.23-1.065,1.065,0,1.5-.017,3,.017,4.5a4.23,4.23,0,0,0,.273,1.37,3.907,3.907,0,0,0,2.837,2.4v22.63a1.187,1.187,0,0,1-.648,1.125,1.045,1.045,0,0,1-1.15-.06,1.326,1.326,0,0,1-.554-1.235q.014-8.573,0-17.154a2.68,2.68,0,0,0-1.789-2.641c-.553-.222-1.107-.463-1.678-.656-.366-.111-.451-.3-.451-.665q.025-5.328.017-10.649a3.9,3.9,0,0,0-3.969-3.952h-17.1a3.892,3.892,0,0,0-3.952,3.952v43.332h1.559c0-11.763,0-31.143.009-42.914a3.725,3.725,0,0,1,.213-1.379,2.273,2.273,0,0,1,2.29-1.431h16.915a2.365,2.365,0,0,1,2.479,2.5c.009,4.744,0,9.479,0,14.225v29h1.593v-30.468c.435.17.827.324,1.218.463.926.358,1.1.631,1.1,1.6q0,8.52.009,17.052a2.887,2.887,0,0,0,.06.674,2.735,2.735,0,0,0,5.4-.648q.011-8.893.008-17.785V1182.1c.188-.051.341-.093.494-.143a3.876,3.876,0,0,0,2.616-3.4c.034-1.661.017-3.321.017-4.982m-1.57,4.565a2.349,2.349,0,1,1-4.693-.017v-3.773h4.659a2.574,2.574,0,0,1,.034.367c.009,1.14.009,2.283,0,3.415" transform="translate(-84.894 -988.473)"/>
      <path id="Path_101" data-name="Path 101" d="M160.014,1319.012a4.467,4.467,0,0,0-.654-1.568c-.068-.1-.14-.2-.218-.3a4.772,4.772,0,0,0-3.776-1.678,4.693,4.693,0,0,0-4.939,4.75,4.6,4.6,0,0,0,.955,2.883l1.971-1.543c-.015-.032-.031-.063-.045-.1l-.026-.071a3.859,3.859,0,0,1-.231-1.437,2.668,2.668,0,0,1,.676-1.812,2.214,2.214,0,0,1,1.639-.64,2.38,2.38,0,0,1,.884.174,2.5,2.5,0,0,1,.881.6,2.451,2.451,0,0,1,.235.287l-3.241,1.816,1.029.408-1.525,1.193-1.915,1.5-.877.687,1.116-.463h0c.1.091.213.177.326.259a5.749,5.749,0,0,0,3.42,1.012,4.832,4.832,0,0,0,3.807-1.491l-1.423-1.543a3.128,3.128,0,0,1-2.315.892,3.947,3.947,0,0,1-.636-.049,2.992,2.992,0,0,1-.583-.154l2.574-1.065-.966-.383,1.75-.982Z" transform="translate(-127.211 -1112.452)"/>
      <path id="Path_102" data-name="Path 102" d="M3696.135,886.853h-1.877v-59.9a23.391,23.391,0,0,0-6.859-16.611l-5.84-5.865,1.329-1.324,5.842,5.865a25.258,25.258,0,0,1,7.408,17.935Z" transform="translate(-3096.203 -679.199)" fill="#3c3c3b"/>
      <path id="Path_103" data-name="Path 103" d="M3765.717,886.862h-1.877v-59.9a25.265,25.265,0,0,1,7.408-17.933l5.842-5.865,1.33,1.324-5.841,5.865a23.4,23.4,0,0,0-6.862,16.611Z" transform="translate(-3165.784 -679.207)" fill="#3c3c3b"/>
      <path id="Path_104" data-name="Path 104" d="M3639.967,759.844,3637.806,762a1.7,1.7,0,0,1-2.4,0l-6-6.005a1.7,1.7,0,0,1,0-2.4l2.161-2.161a1.7,1.7,0,0,1,2.4,0h0l6,6.005a1.7,1.7,0,0,1,0,2.4" transform="translate(-3051.671 -635.044)" fill="#3c3c3b"/>
      <path id="Path_105" data-name="Path 105" d="M3643.247,772.708l-1.25,1.249a1.194,1.194,0,0,1-1.634-.245l-4.7-4.695a1.2,1.2,0,0,1-.244-1.636l1.248-1.249a1.2,1.2,0,0,1,1.636.244l4.695,4.7a1.2,1.2,0,0,1,.245,1.636" transform="translate(-3056.991 -647.7)" fill="#fd0"/>
      <path id="Path_106" data-name="Path 106" d="M3833.542,759.848l2.161,2.161a1.7,1.7,0,0,0,2.4,0l6-6a1.7,1.7,0,0,0,0-2.4l-2.16-2.161a1.7,1.7,0,0,0-2.4,0h0l-6,6a1.7,1.7,0,0,0,0,2.4" transform="translate(-3224.306 -635.048)" fill="#3c3c3b"/>
      <path id="Path_107" data-name="Path 107" d="M3848.253,772.708l1.249,1.249a1.2,1.2,0,0,0,1.636-.245l4.695-4.695a1.2,1.2,0,0,0,.246-1.636l-1.249-1.249a1.2,1.2,0,0,0-1.636.244l-4.7,4.7a1.2,1.2,0,0,0-.244,1.636" transform="translate(-3236.975 -647.7)" fill="#fd0"/>
      <path id="Path_108" data-name="Path 108" d="M3753.8,1308.337h-7.189l1.133-25.1a1.509,1.509,0,0,1,1.508-1.442h1.907a1.511,1.511,0,0,1,1.508,1.442Z" transform="translate(-3151.213 -1083.97)" fill="#3c3c3b"/>
      <path id="Path_109" data-name="Path 109" d="M3744,1456.405H3732.43V1455.3a1.5,1.5,0,0,1,1.5-1.5h8.572a1.5,1.5,0,0,1,1.5,1.5Z" transform="translate(-3139.221 -1229.433)" fill="#3c3c3b"/>
      <path id="Path_110" data-name="Path 110" d="M506.476,916.55H470.89v11.124h35.576a2.981,2.981,0,0,0,2.187-.957l3.844-4.159a.656.656,0,0,0,0-.892l-3.832-4.158a2.982,2.982,0,0,0-2.19-.958" transform="translate(-398.217 -775.098)" fill="#fddb00"/>
      <path id="Path_111" data-name="Path 111" d="M504.225,925.835H468.24V913.89h35.995a3.4,3.4,0,0,1,2.491,1.1l3.834,4.158a1.081,1.081,0,0,1,0,1.448l-3.844,4.167a3.4,3.4,0,0,1-2.489,1.08m-35.166-.821h35.166a2.582,2.582,0,0,0,1.886-.826l3.844-4.167a.253.253,0,0,0,0-.338l-3.832-4.155a2.576,2.576,0,0,0-1.889-.827H469.06Z" transform="translate(-395.976 -772.848)" fill="#231f20"/>
      <path id="Path_112" data-name="Path 112" d="M513.657,818.08H476.21v11.126h37.436a2.979,2.979,0,0,0,2.195-.952l3.844-4.167a.656.656,0,0,0,0-.892l-3.844-4.155a2.977,2.977,0,0,0-2.188-.96" transform="translate(-402.716 -691.825)" fill="#fddb00"/>
      <path id="Path_113" data-name="Path 113" d="M511.4,827.365H473.55V815.42h37.857a3.4,3.4,0,0,1,2.493,1.091l3.833,4.158a1.08,1.08,0,0,1,0,1.449l-3.846,4.159a3.4,3.4,0,0,1-2.489,1.088m-37.026-.819H511.4a2.574,2.574,0,0,0,1.886-.826l3.844-4.159a.247.247,0,0,0,0-.336l-3.832-4.158a2.582,2.582,0,0,0-1.889-.827H474.366Z" transform="translate(-400.466 -689.575)" fill="#231f20"/>
      <path id="Path_114" data-name="Path 114" d="M220.493,867.276h33.4V878.4H220.5a2.978,2.978,0,0,1-2.187-.956l-3.845-4.167a.656.656,0,0,1,0-.892l3.834-4.156a2.977,2.977,0,0,1,2.188-.96" transform="translate(-181.224 -733.423)" fill="#fddb00"/>
      <path id="Path_115" data-name="Path 115" d="M218.275,876.605h33.8V864.66H218.266a3.4,3.4,0,0,0-2.491,1.091l-3.834,4.156a1.08,1.08,0,0,0,0,1.449l3.844,4.167a3.4,3.4,0,0,0,2.489,1.09m32.985-.821H218.275a2.574,2.574,0,0,1-1.886-.824l-3.844-4.167a.25.25,0,0,1,0-.336l3.834-4.158a2.571,2.571,0,0,1,1.887-.823H251.26Z" transform="translate(-178.996 -731.216)" fill="#231f20"/>
      <path id="Path_116" data-name="Path 116" d="M468.269,817.024v80.2h-1.875v-80.2q0-.806-.054-1.6h1.88c.032.532.049,1.068.049,1.6" transform="translate(-394.369 -689.575)" fill="#3c3c3b"/>
      <path id="Path_117" data-name="Path 117" d="M468.619,815.42c-.037.532-.054,1.066-.054,1.6v80.2H466.69v-80.2c0-.536.017-1.071.048-1.6Z" transform="translate(-394.665 -689.575)" fill="#231f20"/>
      <path id="Path_118" data-name="Path 118" d="M456.659,1308.337H449.47l1.133-25.1a1.51,1.51,0,0,1,1.508-1.442h1.908a1.509,1.509,0,0,1,1.508,1.442Z" transform="translate(-380.103 -1083.97)" fill="#231f20"/>
      <path id="Path_119" data-name="Path 119" d="M446.856,1456.405H435.29V1455.3a1.5,1.5,0,0,1,1.5-1.5h8.572a1.5,1.5,0,0,1,1.5,1.5Z" transform="translate(-368.111 -1229.433)" fill="#231f20"/>
      <rect id="Rectangle_115" data-name="Rectangle 115" width="636.717" height="231.506" fill="none"/>
    </g>
    <path id="Path_64973" data-name="Path 64973" d="M1488-644.723H2928.789" transform="translate(-1487.998 1516)" fill="none" stroke="#000" stroke-width="1"/>
  </g>
</svg>
