<svg width="80" height="80" viewBox="0 0 80 80" fill="none" xmlns="http://www.w3.org/2000/svg">
<rect width="80" height="80" rx="40" fill="#D53C3C"/>
<mask id="mask0_823_2978" style="mask-type:alpha" maskUnits="userSpaceOnUse" x="20" y="20" width="40" height="40">
<rect x="20" y="20" width="40" height="40" fill="#D9D9D9"/>
</mask>
<g mask="url(#mask0_823_2978)">
<path d="M39.9999 33.333C43.2777 33.333 46.5066 33.993 49.6866 35.313C52.8677 36.6319 55.6944 38.6108 58.1666 41.2497C58.4999 41.583 58.6666 41.9719 58.6666 42.4163C58.6666 42.8608 58.4999 43.2497 58.1666 43.583L54.3333 47.333C54.0277 47.6386 53.6738 47.8052 53.2716 47.833C52.8683 47.8608 52.4999 47.7497 52.1666 47.4997L47.3333 43.833C47.111 43.6663 46.9444 43.4719 46.8333 43.2497C46.7221 43.0275 46.6666 42.7775 46.6666 42.4997V37.7497C45.611 37.4163 44.5277 37.1525 43.4166 36.958C42.3055 36.7636 41.1666 36.6663 39.9999 36.6663C38.8333 36.6663 37.6944 36.7636 36.5833 36.958C35.4721 37.1525 34.3888 37.4163 33.3333 37.7497V42.4997C33.3333 42.7775 33.2777 43.0275 33.1666 43.2497C33.0555 43.4719 32.8888 43.6663 32.6666 43.833L27.8333 47.4997C27.4999 47.7497 27.1321 47.8608 26.7299 47.833C26.3266 47.8052 25.9721 47.6386 25.6666 47.333L21.8333 43.583C21.4999 43.2497 21.3333 42.8608 21.3333 42.4163C21.3333 41.9719 21.4999 41.583 21.8333 41.2497C24.2777 38.6108 27.0971 36.6319 30.2916 35.313C33.486 33.993 36.7221 33.333 39.9999 33.333Z" fill="#EEEEEE"/>
</g>
</svg>
