<svg width="72" height="72" viewBox="0 0 72 72" fill="none" xmlns="http://www.w3.org/2000/svg">
<g clip-path="url(#clip0_88_2258)">
<path opacity="0.2" d="M36.2798 0.277617C16.5522 0.123019 0.434525 15.99 0.279926 35.7176C0.125327 55.4452 15.9923 71.5628 35.7199 71.7174C55.4475 71.872 71.5651 56.005 71.7197 36.2774C71.8743 16.5499 56.0073 0.432216 36.2798 0.277617Z" fill="#E88E15"/>
<path d="M37.163 26.3656C35.732 26.8628 36.0604 33.7905 36.5869 35.5095C35.0119 43.911 38.6233 45.8347 38.6233 45.8347C38.6233 45.8347 36.1752 47.349 39.4445 52.2833C51.113 52.569 60.554 43.4205 60.2795 35.064C60.005 26.7075 44.4935 25.5938 37.163 26.3656Z" fill="#263238"/>
<path d="M79.3709 54.1981C71.6782 60.0706 41.2807 64.3838 33.0727 65.4481C32.4981 65.5224 31.9156 65.3916 31.4279 65.0788C30.9402 64.766 30.5786 64.2913 30.4065 63.7381L28.3117 57.0173C28.186 56.6172 28.1641 56.1918 28.2479 55.7809C28.3318 55.3701 28.5186 54.9872 28.7909 54.6683L32.1547 50.7802C32.5569 50.3119 33.0559 49.9364 33.6171 49.6793C34.1783 49.4221 34.7886 49.2896 35.406 49.2908C40.1351 49.4505 44.8461 48.6309 49.2434 46.8833C55.3319 43.9043 58.0994 39.2648 57.5369 33.3833C56.9744 27.5018 22.455 26.7413 22.455 26.7413C22.455 26.7413 21.3951 24.7748 26.8424 21.7913C32.2896 18.8078 47.7899 17.892 47.7899 17.892C47.7899 17.892 59.1704 14.8906 67.8149 16.7333C76.4594 18.5761 74.0519 21.8723 74.0519 21.8723C74.0519 21.8723 80.5612 24.7478 83.2005 34.6748C85.8397 44.6018 82.6874 51.6533 79.3709 54.1981Z" fill="#FCDD18"/>
<path opacity="0.2" d="M83.2318 34.6702C82.2416 30.4919 80.0248 26.7052 76.8665 23.7961C62.1039 25.4003 47.1696 24.0441 32.9375 19.8068C30.8266 20.1959 28.7764 20.8624 26.8401 21.789C21.3839 24.768 22.4526 26.739 22.4526 26.739C22.4526 26.739 56.972 27.4882 57.5345 33.3809C58.097 39.2737 55.3296 43.8907 49.2411 46.8809C44.8456 48.6356 40.1336 49.4586 35.4036 49.2975C34.7871 49.2949 34.1774 49.4256 33.6162 49.6808C33.055 49.936 32.5556 50.3095 32.1523 50.7757L28.8065 54.6638C28.7297 54.7589 28.6591 54.8588 28.595 54.963C43.5463 53.388 63.2699 39.0128 83.8574 45.5355C84.4347 41.911 84.2213 38.2045 83.2318 34.6702Z" fill="white"/>
<path d="M36.0944 33.5611C35.1944 34.3171 34.911 43.308 36.918 45.5895C37.7363 46.3514 38.7982 46.7985 39.9151 46.8513C41.0319 46.904 42.1313 46.5591 43.0177 45.8776C44.0572 45.1666 50.1885 44.4465 51.2572 41.1008C52.326 37.755 52.8321 34.4498 48.0666 32.2695C46.1268 31.4446 44.0081 31.1302 41.9124 31.3563C39.8166 31.5824 37.8137 32.3415 36.0944 33.5611Z" fill="#FCDD18"/>
<path d="M44.5229 33.9299C44.0325 33.7352 43.5258 33.5846 43.0087 33.4799C40.4168 33.0956 37.7747 33.69 35.5972 35.1472C35.1719 38.0362 35.3338 43.7827 36.9178 45.54C37.1227 45.7777 37.3553 45.9899 37.6108 46.1721C38.3325 46.03 39.0112 45.722 39.5932 45.2722C40.1695 44.8953 40.7948 44.5993 41.4516 44.3925C43.1931 43.7175 46.1384 42.5609 46.7054 40.6934C47.7787 37.2779 47.7179 35.2709 44.5229 33.9299Z" fill="#263238"/>
<path d="M48.8294 34.1571C48.8294 34.1571 70.7152 26.2237 81.4904 27.081C82.6323 29.04 83.5586 31.1168 84.2533 33.2752C83.9964 33.7437 83.6354 34.147 83.1981 34.4542C82.6266 33.4912 81.9538 33.5092 80.6556 33.696C79.3573 33.8827 56.0518 39.2647 49.0858 42.0457C48.5362 39.4519 48.4495 36.7812 48.8294 34.1571Z" fill="#FCDD18"/>
<path opacity="0.5" d="M48.8294 34.1571C48.8294 34.1571 70.7152 26.2237 81.4904 27.081C82.6323 29.04 83.5586 31.1168 84.2533 33.2752C83.9964 33.7437 83.6354 34.147 83.1981 34.4542C82.6266 33.4912 81.9538 33.5092 80.6556 33.696C79.3573 33.8827 56.0518 39.2647 49.0858 42.0457C48.5362 39.4519 48.4495 36.7812 48.8294 34.1571Z" fill="white"/>
<path opacity="0.3" d="M81.1057 50.2583C77.3887 47.9453 66.3187 58.0522 36.5242 64.98C47.6797 63.4185 72.5242 59.4338 79.3777 54.1958C80.3406 53.4292 81.1531 52.4909 81.774 51.4283C81.7821 51.1905 81.7239 50.955 81.6059 50.7484C81.4879 50.5418 81.3147 50.3721 81.1057 50.2583Z" fill="black"/>
</g>
<defs>
<clipPath id="clip0_88_2258">
<rect width="72" height="72" fill="white"/>
</clipPath>
</defs>
</svg>
