<svg width="80" height="80" viewBox="0 0 80 80" fill="none" xmlns="http://www.w3.org/2000/svg">
<rect width="80" height="80" rx="40" fill="#EEEEEE"/>
<mask id="mask0_823_2974" style="mask-type:alpha" maskUnits="userSpaceOnUse" x="20" y="20" width="40" height="40">
<rect x="20" y="20" width="40" height="40" fill="#D9D9D9"/>
</mask>
<g mask="url(#mask0_823_2974)">
<path d="M39.9999 43.333C38.611 43.333 37.4305 42.8469 36.4583 41.8747C35.486 40.9025 34.9999 39.7219 34.9999 38.333V28.333C34.9999 26.9441 35.486 25.7636 36.4583 24.7913C37.4305 23.8191 38.611 23.333 39.9999 23.333C41.3888 23.333 42.5694 23.8191 43.5416 24.7913C44.5138 25.7636 44.9999 26.9441 44.9999 28.333V38.333C44.9999 39.7219 44.5138 40.9025 43.5416 41.8747C42.5694 42.8469 41.3888 43.333 39.9999 43.333ZM38.3333 54.9997V49.8747C35.4444 49.4858 33.0555 48.1941 31.1666 45.9997C29.2777 43.8052 28.3333 41.2497 28.3333 38.333H31.6666C31.6666 40.6386 32.4794 42.6036 34.1049 44.228C35.7294 45.8536 37.6944 46.6663 39.9999 46.6663C42.3055 46.6663 44.271 45.8536 45.8966 44.228C47.521 42.6036 48.3333 40.6386 48.3333 38.333H51.6666C51.6666 41.2497 50.7221 43.8052 48.8333 45.9997C46.9444 48.1941 44.5555 49.4858 41.6666 49.8747V54.9997H38.3333Z" fill="#1C1B1F"/>
</g>
</svg>
