<svg width="80" height="80" viewBox="0 0 80 80" fill="none" xmlns="http://www.w3.org/2000/svg">
<rect width="80" height="80" rx="40" fill="#3E3E3E"/>
<mask id="mask0_823_3034" style="mask-type:alpha" maskUnits="userSpaceOnUse" x="20" y="20" width="40" height="40">
<rect x="20" y="20" width="40" height="40" fill="#D9D9D9"/>
</mask>
<g mask="url(#mask0_823_3034)">
<path d="M49.583 44.9163L47.1663 42.4997C47.5552 41.8608 47.8469 41.1941 48.0413 40.4997C48.2358 39.8052 48.333 39.083 48.333 38.333H51.6663C51.6663 39.5552 51.4858 40.7147 51.1247 41.8113C50.7636 42.9091 50.2497 43.9441 49.583 44.9163ZM44.6663 39.9163L34.9997 30.2497V28.333C34.9997 26.9441 35.4858 25.7636 36.458 24.7913C37.4302 23.8191 38.6108 23.333 39.9997 23.333C41.3886 23.333 42.5691 23.8191 43.5413 24.7913C44.5136 25.7636 44.9997 26.9441 44.9997 28.333V38.333C44.9997 38.6386 44.9652 38.9163 44.8963 39.1663C44.8263 39.4163 44.7497 39.6663 44.6663 39.9163ZM38.333 54.9997V49.833C35.4441 49.4441 33.0552 48.1597 31.1663 45.9797C29.2775 43.7986 28.333 41.2497 28.333 38.333H31.6663C31.6663 40.6386 32.4791 42.6036 34.1047 44.228C35.7291 45.8536 37.6941 46.6663 39.9997 46.6663C40.9441 46.6663 41.8402 46.5208 42.688 46.2297C43.5347 45.9375 44.3052 45.5275 44.9997 44.9997L47.3747 47.3747C46.5691 48.0136 45.6875 48.548 44.7297 48.978C43.7708 49.4091 42.7497 49.6941 41.6663 49.833V54.9997H38.333ZM52.9997 57.6663L22.333 26.9997L24.6663 24.6663L55.333 55.333L52.9997 57.6663Z" fill="#EEEEEE"/>
</g>
</svg>
