<svg xmlns="http://www.w3.org/2000/svg" xmlns:xlink="http://www.w3.org/1999/xlink" width="92" height="92" viewBox="0 0 92 92">
  <defs>
    <clipPath id="clip-path">
      <rect id="Rectangle_2916" data-name="Rectangle 2916" width="91.286" height="91.286" rx="45.643" transform="translate(0 91.284) rotate(-89.551)" fill="#e88e15" opacity="0.2"/>
    </clipPath>
  </defs>
  <g id="Group_23620" data-name="Group 23620" transform="translate(-786.996 -702.754)">
    <rect id="Rectangle_2945" data-name="Rectangle 2945" width="91.286" height="91.286" rx="45.643" transform="translate(786.996 794.038) rotate(-89.551)" fill="#e88e15" opacity="0.2"/>
    <g id="Mask_Group_1" data-name="Mask Group 1" transform="translate(786.996 702.755)" clip-path="url(#clip-path)">
      <g id="Group_22837" data-name="Group 22837" transform="translate(28.575 20.607)">
        <path id="Path_63582" data-name="Path 63582" d="M839.557,760.182c-1.828.634-1.409,9.492-.735,11.685-2.006,10.735,2.6,13.192,2.6,13.192s-3.129,1.934,1.049,8.24c14.909.365,26.974-11.325,26.624-22S848.915,759.195,839.557,760.182Z" transform="translate(-820.637 -747.1)" fill="#263238"/>
        <path id="Path_63583" data-name="Path 63583" d="M894.991,796.843c-9.829,7.5-48.672,13.016-59.158,14.374a3.147,3.147,0,0,1-3.407-2.185l-2.676-8.588a3.149,3.149,0,0,1,.611-3l4.289-4.968a5.465,5.465,0,0,1,4.155-1.9c4.006.019,12.056-.32,17.681-3.075,7.779-3.808,11.317-9.735,10.6-17.251s-44.828-8.486-44.828-8.486-1.354-2.513,5.605-6.333,26.768-4.983,26.768-4.983,14.543-3.835,25.593-1.481,7.968,6.566,7.968,6.566,8.316,3.675,11.688,16.358S899.227,793.591,894.991,796.843Z" transform="translate(-822.147 -748.199)" fill="#fcdd18"/>
        <path id="Path_63584" data-name="Path 63584" d="M899.918,771.485a27.517,27.517,0,0,0-8.134-13.895c-13.452,1.71-37.5,1.143-56.131-5.1a31.118,31.118,0,0,0-7.791,2.532c-6.972,3.806-5.606,6.333-5.606,6.333s44.108.958,44.828,8.486-2.818,13.429-10.6,17.237c-5.626,2.769-13.676,3.108-17.682,3.089a5.463,5.463,0,0,0-4.155,1.89l-4.276,4.968a3.625,3.625,0,0,0-.271.382c19.105-2.017,44.3-20.382,70.613-12.046A32.518,32.518,0,0,0,899.918,771.485Z" transform="translate(-822.147 -747.797)" fill="#fff" opacity="0.2" style="mix-blend-mode: normal;isolation: isolate"/>
        <path id="Path_63585" data-name="Path 63585" d="M838.265,768.815c-1.162.966-1.513,12.455,1.052,15.369s6.464,1.277,7.793.369,9.162-1.828,10.528-6.1,2.017-8.5-4.078-11.286A15.771,15.771,0,0,0,838.265,768.815Z" transform="translate(-820.718 -746.538)" fill="#fcdd18"/>
        <path id="Path_63586" data-name="Path 63586" d="M849.035,769.059a11.341,11.341,0,0,0-1.934-.567,13.475,13.475,0,0,0-9.47,2.13c-.542,3.692-.338,11.034,1.688,13.281a4.992,4.992,0,0,0,.886.808,6.049,6.049,0,0,0,2.533-1.145,9.628,9.628,0,0,1,2.376-1.124c2.225-.869,5.99-2.341,6.713-4.725C853.2,773.336,853.119,770.771,849.035,769.059Z" transform="translate(-820.719 -746.31)" fill="#263238"/>
        <path id="Path_63587" data-name="Path 63587" d="M853.095,770.053s27.965-10.138,41.733-9.04a40.163,40.163,0,0,1,3.531,7.914,4.468,4.468,0,0,1-1.348,1.506c-.73-1.232-1.589-1.206-3.249-.97s-31.437,7.116-40.339,10.669A28.76,28.76,0,0,1,853.095,770.053Z" transform="translate(-819.272 -747.005)" fill="#fcdd18"/>
        <path id="Path_63588" data-name="Path 63588" d="M853.095,770.053s27.965-10.138,41.733-9.04a40.163,40.163,0,0,1,3.531,7.914,4.468,4.468,0,0,1-1.348,1.506c-.73-1.232-1.589-1.206-3.249-.97s-31.437,7.116-40.339,10.669A28.76,28.76,0,0,1,853.095,770.053Z" transform="translate(-819.272 -747.005)" fill="#fff" opacity="0.5" style="mix-blend-mode: normal;isolation: isolate"/>
        <path id="Path_63589" data-name="Path 63589" d="M895.65,788.109c-4.748-2.956-18.893,9.959-56.966,18.811,14.253-2,46.006-7.088,54.756-13.78a12.73,12.73,0,0,0,3.062-3.535A1.639,1.639,0,0,0,895.65,788.109Z" transform="translate(-820.596 -744.496)" opacity="0.3" style="mix-blend-mode: normal;isolation: isolate"/>
      </g>
    </g>
  </g>
</svg>
