<svg xmlns="http://www.w3.org/2000/svg" xmlns:xlink="http://www.w3.org/1999/xlink" width="72" height="72" viewBox="0 0 72 72">
  <defs>
    <clipPath id="clip-path">
      <rect id="Rectangle_2916" data-name="Rectangle 2916" width="71.442" height="71.442" rx="35.721" transform="translate(0 71.439) rotate(-89.551)" fill="#e88e15" opacity="0.2"/>
    </clipPath>
  </defs>
  <g id="Group_22838" data-name="Group 22838" transform="translate(-786.996 -702.754)">
    <rect id="Rectangle_2945" data-name="Rectangle 2945" width="71.442" height="71.442" rx="35.721" transform="translate(786.996 774.194) rotate(-89.551)" fill="#e88e15" opacity="0.2"/>
    <g id="Mask_Group_1" data-name="Mask Group 1" transform="translate(786.996 702.755)" clip-path="url(#clip-path)">
      <g id="Group_22837" data-name="Group 22837" transform="translate(22.363 16.127)">
        <path id="Path_63582" data-name="Path 63582" d="M839.273,760.126c-1.431.5-1.1,7.429-.575,9.145-1.57,8.4,2.037,10.324,2.037,10.324s-2.449,1.513.821,6.449c11.668.285,21.11-8.863,20.836-17.219S846.6,759.353,839.273,760.126Z" transform="translate(-824.465 -749.887)" fill="#263238"/>
        <path id="Path_63583" data-name="Path 63583" d="M879.156,786.268c-7.692,5.873-38.091,10.187-46.3,11.249a2.463,2.463,0,0,1-2.667-1.71l-2.095-6.721a2.465,2.465,0,0,1,.478-2.348l3.356-3.888a4.277,4.277,0,0,1,3.252-1.489c3.135.015,9.435-.251,13.837-2.407,6.088-2.98,8.856-7.619,8.293-13.5s-35.083-6.641-35.083-6.641-1.06-1.967,4.387-4.956,20.949-3.9,20.949-3.9,11.381-3,20.03-1.159,6.236,5.139,6.236,5.139,6.508,2.876,9.148,12.8S882.471,783.724,879.156,786.268Z" transform="translate(-822.148 -748.199)" fill="#fcdd18"/>
        <path id="Path_63584" data-name="Path 63584" d="M883.011,767.357a21.535,21.535,0,0,0-6.366-10.874c-10.527,1.338-29.348.895-43.929-3.99a24.357,24.357,0,0,0-6.1,1.981c-5.456,2.979-4.387,4.956-4.387,4.956s34.52.75,35.083,6.641-2.205,10.51-8.292,13.49c-4.4,2.167-10.7,2.432-13.838,2.418a4.276,4.276,0,0,0-3.252,1.479l-3.346,3.888a2.85,2.85,0,0,0-.212.3c14.952-1.579,34.673-15.951,55.262-9.427A25.448,25.448,0,0,0,883.011,767.357Z" transform="translate(-822.147 -748.817)" fill="#fff" opacity="0.2" style="mix-blend-mode: normal;isolation: isolate"/>
        <path id="Path_63585" data-name="Path 63585" d="M838.073,768.183c-.909.756-1.184,9.747.823,12.028s5.059,1,6.1.289,7.17-1.43,8.239-4.777,1.579-6.651-3.191-8.832A12.343,12.343,0,0,0,838.073,768.183Z" transform="translate(-824.34 -750.749)" fill="#fcdd18"/>
        <path id="Path_63586" data-name="Path 63586" d="M846.5,768.9a8.876,8.876,0,0,0-1.513-.443,10.546,10.546,0,0,0-7.412,1.667c-.425,2.889-.264,8.635,1.321,10.393a3.907,3.907,0,0,0,.693.633,4.734,4.734,0,0,0,1.982-.9,7.536,7.536,0,0,1,1.86-.88c1.741-.68,4.688-1.832,5.254-3.7C849.757,772.251,849.7,770.244,846.5,768.9Z" transform="translate(-824.339 -751.1)" fill="#263238"/>
        <path id="Path_63587" data-name="Path 63587" d="M853.031,768.07s21.885-7.934,32.661-7.075a31.432,31.432,0,0,1,2.763,6.193,3.5,3.5,0,0,1-1.055,1.179c-.571-.964-1.244-.944-2.542-.759s-24.6,5.569-31.57,8.349A22.507,22.507,0,0,1,853.031,768.07Z" transform="translate(-826.561 -750.032)" fill="#fcdd18"/>
        <path id="Path_63588" data-name="Path 63588" d="M853.031,768.07s21.885-7.934,32.661-7.075a31.432,31.432,0,0,1,2.763,6.193,3.5,3.5,0,0,1-1.055,1.179c-.571-.964-1.244-.944-2.542-.759s-24.6,5.569-31.57,8.349A22.507,22.507,0,0,1,853.031,768.07Z" transform="translate(-826.561 -750.032)" fill="#fff" opacity="0.5" style="mix-blend-mode: normal;isolation: isolate"/>
        <path id="Path_63589" data-name="Path 63589" d="M883.266,788.015c-3.716-2.313-14.786,7.794-44.582,14.722,11.155-1.562,36-5.547,42.853-10.784a9.962,9.962,0,0,0,2.4-2.767A1.282,1.282,0,0,0,883.266,788.015Z" transform="translate(-824.528 -753.884)" opacity="0.3" style="mix-blend-mode: normal;isolation: isolate"/>
      </g>
    </g>
  </g>
</svg>
